<svg width="382" height="191" viewBox="0 0 382 191" fill="none" xmlns="http://www.w3.org/2000/svg">
<mask id="mask0_378_181" style="mask-type:alpha" maskUnits="userSpaceOnUse" x="0" y="0" width="382" height="191">
<rect x="1" y="1" width="380" height="189" rx="94.5" fill="#D9D9D9" stroke="black" stroke-width="2"/>
</mask>
<g mask="url(#mask0_378_181)">
<path d="M125.565 61.5667L109.038 50.3157C108.199 49.746 107.621 48.8665 107.431 47.8706C107.24 46.8747 107.454 45.8439 108.023 45.0051L124.165 21.287C124.446 20.8708 124.807 20.5142 125.226 20.2378C125.646 19.9614 126.116 19.7705 126.609 19.6762C127.103 19.5819 127.61 19.586 128.102 19.6883C128.594 19.7906 129.06 19.989 129.475 20.2722L170.692 48.3122C171.529 48.8832 172.105 49.7634 172.294 50.7592C172.483 51.755 172.268 52.785 171.698 53.6227L155.556 77.3496C154.985 78.1869 154.105 78.7633 153.109 78.952C152.113 79.1406 151.083 78.9262 150.245 78.3557L129.965 64.5325" stroke="#121212" stroke-width="0.874887" stroke-linecap="round" stroke-linejoin="round"/>
<path d="M122.66 23.5007L116.863 32.0216L164.394 64.3599L170.191 55.839L122.66 23.5007Z" fill="black" stroke="#121212" stroke-width="0.874887" stroke-linecap="round" stroke-linejoin="round"/>
<path d="M184.313 73.5437L184.059 73.4212C183.756 73.2774 183.497 73.056 183.308 72.7796C183.119 72.5032 183.006 72.1817 182.981 71.8476C182.956 71.5135 183.02 71.1787 183.166 70.8774C183.313 70.576 183.536 70.3187 183.814 70.1316C184.985 69.3364 186.072 68.4248 187.06 67.4107C190.123 64.2075 192.011 60.0613 192.416 55.6478C192.821 51.2344 191.719 46.8138 189.291 43.1065C189.045 42.7707 188.907 42.3677 188.897 41.9516C188.885 41.5369 189.009 41.1297 189.25 40.7917C189.491 40.4538 189.835 40.2035 190.231 40.0788C190.626 39.9542 191.052 39.962 191.443 40.101C191.834 40.24 192.169 40.5027 192.397 40.8493C193.068 41.8704 193.657 42.9441 194.155 44.0601C195.529 47.0172 196.262 50.2311 196.307 53.4913C196.332 54.8268 196.239 56.1619 196.027 57.4808C196.023 57.5303 196.023 57.58 196.027 57.6295L195.713 59.1956L195.651 59.3793C195.468 60.0355 195.301 60.7004 195.083 61.3478C194.516 63.0802 193.74 64.7372 192.773 66.2821C191.024 69.0729 188.701 71.4589 185.957 73.2812C185.645 73.494 185.277 73.6097 184.899 73.6137H184.724L184.313 73.5437Z" fill="black"/>
<path d="M189.065 57.1046C188.647 59.2291 187.813 61.2501 186.612 63.0517C185.411 64.8533 183.866 66.4001 182.066 67.6032C181.764 67.8154 181.405 67.93 181.036 67.9315C180.667 67.933 180.307 67.8212 180.003 67.6114C179.7 67.4016 179.468 67.1037 179.34 66.758C179.211 66.4124 179.192 66.0355 179.284 65.6784C179.386 65.231 179.659 64.8414 180.045 64.5936C182.505 62.9421 184.325 60.4961 185.198 57.6645C185.785 55.8351 185.951 53.8968 185.685 51.9942C185.418 50.0915 184.725 48.2736 183.658 46.6759C183.513 46.4722 183.41 46.2408 183.357 45.996C183.304 45.7511 183.301 45.498 183.35 45.2522C183.398 45.0063 183.496 44.773 183.638 44.5665C183.78 44.36 183.962 44.1846 184.174 44.0513C184.576 43.8011 185.059 43.7187 185.521 43.8218C185.982 43.9249 186.385 44.2053 186.642 44.6025C187.898 46.4692 188.756 48.5748 189.161 50.7879C189.485 52.5198 189.524 54.2929 189.275 56.0372C189.188 56.3872 189.126 56.7196 189.065 57.1046Z" fill="black"/>
<path d="M182.668 55.7836C182.416 57.0784 181.91 58.3103 181.179 59.4081C180.447 60.5059 179.505 61.4477 178.408 62.179C178.213 62.3117 177.994 62.4047 177.763 62.4528C177.532 62.5009 177.295 62.503 177.063 62.4592C176.831 62.4153 176.611 62.3263 176.414 62.1971C176.217 62.068 176.047 61.9013 175.914 61.7065C175.781 61.5118 175.688 61.2928 175.64 61.0621C175.592 60.8314 175.59 60.5935 175.634 60.362C175.678 60.1305 175.767 59.9098 175.896 59.7127C176.025 59.5156 176.192 59.3458 176.387 59.2131C177.156 58.7099 177.801 58.0401 178.276 57.2534C178.948 56.2074 179.301 54.988 179.29 53.7447C179.279 52.5014 178.905 51.2884 178.215 50.2543C177.928 49.8384 177.815 49.3265 177.9 48.8283C177.967 48.4801 178.136 48.1597 178.385 47.9074C178.634 47.6551 178.953 47.4824 179.3 47.4109C179.648 47.3335 180.011 47.3641 180.341 47.4986C180.67 47.633 180.951 47.8649 181.146 48.1633C181.894 49.2681 182.415 50.5113 182.676 51.8198C182.938 53.1284 182.935 54.4761 182.668 55.7836Z" fill="black"/>
<path d="M336.018 71.3828L307.768 28.7322L296.683 33.9815C285.589 39.2308 270.646 41.8555 250.06 47.9797C229.474 54.1038 219.631 53.229 212.728 58.697C205.825 64.165 187.024 97.1919 185.187 100.228C183.349 103.264 186.831 110.28 186.831 110.28C186.831 110.28 214.653 128.696 215.055 129.108C215.458 129.519 222.369 134.296 225.607 134.646C228.844 134.996 236.044 133.683 236.044 133.683C237.479 134.594 239.004 135.356 240.593 135.958C242.466 136.553 247.234 135.451 247.234 135.451C247.234 135.451 255.108 138.758 258.607 135.731C262.107 132.703 267.356 116.597 267.356 116.597C267.356 116.597 283.822 112.809 296.543 107.034C309.264 101.26 315.528 93.9111 323.804 87.6382C327.626 84.7651 331.73 82.2881 336.053 80.2454L336.018 71.3828Z" fill="#FAE659" stroke="#121212" stroke-width="0.874887" stroke-linecap="round" stroke-linejoin="round"/>
<path d="M239.799 128.084C242.853 123.71 247.437 116.483 249.056 111.033" stroke="#121212" stroke-width="0.874887" stroke-linecap="round" stroke-linejoin="round"/>
<path d="M236.893 132.108C236.893 132.108 237.366 131.496 238.127 130.446" stroke="#121212" stroke-width="0.874887" stroke-linecap="round" stroke-linejoin="round"/>
<path d="M249.861 133.237L256.79 121.102C261.734 112.424 260.85 109.834 259.923 109.134" stroke="#121212" stroke-width="0.874887" stroke-linecap="round" stroke-linejoin="round"/>
<path d="M214.698 94.9347C215.946 95.8115 217.269 96.5757 218.652 97.2181" stroke="#121212" stroke-width="0.874887" stroke-linecap="round" stroke-linejoin="round"/>
<path d="M203.389 81.0853C205.431 85.5237 208.35 89.5027 211.971 92.7825" stroke="#121212" stroke-width="0.874887" stroke-linecap="round" stroke-linejoin="round"/>
<path d="M212.702 70.9017C212.702 70.9017 218.975 85.2585 225.134 87.8482" stroke="#121212" stroke-width="0.874887" stroke-linecap="round" stroke-linejoin="round"/>
<path d="M262.081 109.151C262.081 109.151 267.54 112.94 267.33 116.588" stroke="#121212" stroke-width="0.874887" stroke-linecap="round" stroke-linejoin="round"/>
<path d="M193.721 100.516C196.24 101.008 198.644 101.969 200.807 103.351" stroke="#121212" stroke-width="0.874887" stroke-linecap="round" stroke-linejoin="round"/>
<path d="M190.334 100.114C191.02 100.129 191.704 100.188 192.382 100.289" stroke="#121212" stroke-width="0.874887" stroke-linecap="round" stroke-linejoin="round"/>
<path d="M208.742 101.03L126.895 124.809C124.616 125.471 123.306 127.854 123.968 130.132L138.621 180.566C139.282 182.844 141.666 184.155 143.944 183.493L225.792 159.714C228.07 159.052 229.38 156.669 228.718 154.391L214.066 103.957C213.404 101.678 211.021 100.368 208.742 101.03Z" fill="#FAE659" stroke="#121212" stroke-width="0.874887" stroke-linecap="round" stroke-linejoin="round"/>
<path d="M144.339 141.383L138.148 143.182C136.366 143.699 135.341 145.563 135.859 147.345L137.716 153.739C138.234 155.52 140.098 156.545 141.88 156.028L148.072 154.229C149.853 153.711 150.878 151.847 150.36 150.065L148.503 143.672C147.985 141.89 146.121 140.865 144.339 141.383Z" fill="#FAE659" stroke="#121212" stroke-width="0.874887" stroke-linecap="round" stroke-linejoin="round"/>
<path d="M142.938 155.494L139.325 143.045" stroke="#121212" stroke-width="0.874887" stroke-linecap="round" stroke-linejoin="round"/>
<path d="M146.871 154.357L144.062 144.672L148.437 143.403" stroke="#121212" stroke-width="0.874887" stroke-linecap="round" stroke-linejoin="round"/>
<path d="M136.045 147.463L140.14 146.273" stroke="#121212" stroke-width="0.874887" stroke-linecap="round" stroke-linejoin="round"/>
<path d="M136.831 150.192L140.934 149.002" stroke="#121212" stroke-width="0.874887" stroke-linecap="round" stroke-linejoin="round"/>
<path d="M137.655 153.009L141.75 151.82" stroke="#121212" stroke-width="0.874887" stroke-linecap="round" stroke-linejoin="round"/>
<path d="M145.258 147.655L149.353 146.465" stroke="#121212" stroke-width="0.874887" stroke-linecap="round" stroke-linejoin="round"/>
<path d="M146.109 150.56L149.863 149.466" stroke="#121212" stroke-width="0.874887" stroke-linecap="round" stroke-linejoin="round"/>
<path d="M142.348 167.568C142.086 166.842 142.028 166.058 142.181 165.302C142.255 165.031 142.4 164.786 142.602 164.592C142.804 164.398 143.055 164.262 143.327 164.199C143.592 164.105 143.877 164.084 144.152 164.138C144.428 164.192 144.684 164.319 144.893 164.506C145.427 165.064 145.799 165.756 145.97 166.509C146.231 167.235 146.289 168.019 146.136 168.775C146.042 169.035 145.888 169.269 145.687 169.458C145.485 169.647 145.242 169.786 144.976 169.862C144.711 169.939 144.431 169.952 144.159 169.9C143.888 169.848 143.633 169.732 143.415 169.562C142.882 169.009 142.512 168.318 142.348 167.568ZM143.599 165.109C143.471 165.153 143.362 165.238 143.288 165.35C143.213 165.462 143.178 165.596 143.187 165.73C143.184 166.246 143.27 166.758 143.441 167.244C143.489 167.436 143.548 167.626 143.616 167.813L144.29 165.433C144.224 165.314 144.12 165.221 143.994 165.168C143.869 165.116 143.73 165.107 143.599 165.144V165.109ZM144.036 168.661C144.095 168.784 144.196 168.881 144.32 168.937C144.445 168.992 144.585 169.002 144.716 168.964C144.846 168.927 144.96 168.844 145.035 168.731C145.111 168.618 145.145 168.482 145.13 168.346C145.133 167.831 145.047 167.319 144.876 166.833C144.806 166.57 144.727 166.352 144.657 166.15L143.966 168.565C143.988 168.593 144.011 168.619 144.036 168.644V168.661Z" fill="#FAE659" stroke="#121212" stroke-width="0.437444" stroke-miterlimit="10"/>
<path d="M147.618 167.961L148.834 167.611L147.784 164.051L146.734 164.663L146.454 163.683L147.504 163.079L148.554 162.782L149.866 167.305L151.074 166.946L151.353 167.9L147.854 168.915L147.618 167.961Z" fill="#FAE659" stroke="#121212" stroke-width="0.437444" stroke-miterlimit="10"/>
<path d="M151.392 164.934C151.126 164.209 151.068 163.424 151.226 162.668C151.299 162.398 151.444 162.153 151.646 161.959C151.848 161.765 152.099 161.629 152.372 161.566C152.637 161.474 152.922 161.455 153.198 161.51C153.473 161.565 153.728 161.693 153.938 161.881C154.433 162.465 154.799 163.148 155.013 163.883C155.227 164.619 155.284 165.391 155.18 166.15C155.101 166.419 154.952 166.662 154.75 166.856C154.547 167.049 154.297 167.186 154.025 167.253C153.76 167.345 153.475 167.364 153.199 167.308C152.924 167.253 152.668 167.125 152.459 166.938C151.928 166.379 151.559 165.687 151.392 164.934ZM152.643 162.484C152.514 162.527 152.403 162.611 152.327 162.723C152.251 162.836 152.214 162.97 152.223 163.106C152.226 163.621 152.311 164.132 152.477 164.619C152.538 164.829 152.599 165.013 152.66 165.188L153.334 162.799C153.265 162.684 153.16 162.595 153.035 162.544C152.91 162.494 152.773 162.485 152.643 162.519V162.484ZM153.08 166.037C153.144 166.153 153.245 166.246 153.367 166.3C153.488 166.354 153.625 166.366 153.754 166.334C153.882 166.29 153.992 166.206 154.068 166.094C154.144 165.982 154.181 165.848 154.174 165.713C154.172 165.198 154.086 164.687 153.92 164.199C153.85 163.946 153.771 163.718 153.701 163.526L153.01 165.94L153.08 166.037Z" fill="#FAE659" stroke="#121212" stroke-width="0.437444" stroke-miterlimit="10"/>
<path d="M156.668 165.328L157.875 164.978L156.843 161.426L155.801 162.03L155.521 161.058L156.571 160.455L157.621 160.149L158.934 164.672L160.141 164.322L160.421 165.275L156.921 166.282L156.668 165.328Z" fill="#FAE659" stroke="#121212" stroke-width="0.437444" stroke-miterlimit="10"/>
<path d="M160.438 162.31C160.174 161.584 160.114 160.801 160.263 160.044C160.357 159.784 160.511 159.55 160.712 159.361C160.914 159.172 161.157 159.033 161.423 158.956C161.688 158.879 161.968 158.866 162.239 158.919C162.511 158.971 162.766 159.086 162.984 159.256C163.519 159.812 163.889 160.506 164.051 161.26C164.315 161.982 164.376 162.763 164.226 163.517C164.133 163.777 163.979 164.011 163.777 164.2C163.576 164.389 163.332 164.528 163.067 164.604C162.801 164.681 162.521 164.694 162.25 164.642C161.979 164.59 161.723 164.474 161.505 164.304C160.972 163.751 160.602 163.06 160.438 162.31ZM161.68 159.86C161.554 159.902 161.445 159.985 161.37 160.096C161.296 160.207 161.26 160.339 161.269 160.472C161.271 160.99 161.357 161.504 161.523 161.995C161.584 162.196 161.645 162.388 161.707 162.555L162.38 160.175C162.313 160.056 162.207 159.963 162.079 159.912C161.952 159.861 161.811 159.855 161.68 159.895V159.86ZM162.118 163.359C162.183 163.477 162.285 163.57 162.409 163.624C162.532 163.678 162.67 163.689 162.8 163.657C162.929 163.618 163.041 163.536 163.117 163.424C163.194 163.313 163.23 163.179 163.22 163.044C163.219 162.53 163.133 162.018 162.966 161.531C162.888 161.277 162.818 161.05 162.739 160.857L162.057 163.263L162.118 163.359Z" fill="#FAE659" stroke="#121212" stroke-width="0.437444" stroke-miterlimit="10"/>
<path d="M165.713 162.703L166.92 162.353L165.888 158.801L164.847 159.405L164.558 158.425L165.617 157.83L166.658 157.524L167.979 162.047L169.186 161.697L169.466 162.651L165.967 163.657L165.713 162.703Z" fill="#FAE659" stroke="#121212" stroke-width="0.437444" stroke-miterlimit="10"/>
<path d="M169.475 159.676C169.218 158.952 169.16 158.173 169.309 157.419C169.387 157.149 169.534 156.904 169.737 156.709C169.94 156.514 170.19 156.375 170.464 156.308C170.729 156.216 171.014 156.197 171.29 156.252C171.565 156.307 171.82 156.435 172.03 156.623C172.563 157.18 172.932 157.873 173.097 158.626C173.363 159.351 173.42 160.136 173.263 160.892C173.169 161.151 173.015 161.384 172.814 161.571C172.614 161.759 172.371 161.897 172.107 161.974C171.843 162.051 171.564 162.064 171.294 162.013C171.023 161.962 170.769 161.848 170.551 161.68C170.016 161.123 169.644 160.43 169.475 159.676ZM170.726 157.227C170.6 157.272 170.491 157.357 170.417 157.469C170.343 157.581 170.307 157.714 170.315 157.848C170.317 158.363 170.403 158.874 170.569 159.361C170.63 159.571 170.691 159.764 170.752 159.93L171.426 157.55C171.357 157.432 171.251 157.341 171.124 157.29C170.997 157.239 170.857 157.232 170.726 157.27V157.227ZM171.164 160.779C171.23 160.895 171.332 160.987 171.455 161.041C171.578 161.094 171.715 161.107 171.846 161.076C171.975 161.034 172.086 160.95 172.162 160.837C172.238 160.725 172.275 160.59 172.266 160.455C172.263 159.94 172.177 159.429 172.012 158.941C171.933 158.688 171.863 158.469 171.785 158.268L171.102 160.682L171.164 160.779Z" fill="#FAE659" stroke="#121212" stroke-width="0.437444" stroke-miterlimit="10"/>
<path d="M174.759 160.079L175.967 159.72L174.908 156.168L173.867 156.772L173.578 155.8L174.637 155.197L175.678 154.899L176.99 159.422L178.206 159.064L178.477 160.017L174.978 161.032L174.759 160.079Z" fill="#FAE659" stroke="#121212" stroke-width="0.437444" stroke-miterlimit="10"/>
<path d="M178.52 157.052C178.259 156.326 178.201 155.542 178.354 154.786C178.448 154.526 178.602 154.292 178.803 154.103C179.005 153.914 179.248 153.775 179.514 153.698C179.779 153.621 180.059 153.609 180.331 153.661C180.602 153.713 180.857 153.829 181.075 153.998C181.607 154.556 181.976 155.249 182.142 156.002C182.408 156.724 182.466 157.506 182.309 158.259C182.234 158.531 182.087 158.778 181.884 158.973C181.681 159.169 181.429 159.306 181.154 159.37C180.889 159.463 180.605 159.482 180.33 159.425C180.056 159.368 179.802 159.237 179.597 159.046C179.06 158.494 178.687 157.803 178.52 157.052ZM179.771 154.602C179.646 154.645 179.538 154.729 179.463 154.839C179.389 154.95 179.353 155.081 179.36 155.214C179.358 155.733 179.444 156.247 179.614 156.737C179.675 156.947 179.736 157.13 179.789 157.297L180.471 154.917C180.401 154.8 180.295 154.711 180.168 154.662C180.041 154.612 179.902 154.607 179.771 154.646V154.602ZM180.209 158.145C180.268 158.268 180.369 158.365 180.493 158.421C180.618 158.476 180.758 158.486 180.888 158.448C181.019 158.411 181.133 158.328 181.208 158.215C181.284 158.102 181.317 157.966 181.303 157.83C181.304 157.316 181.222 156.804 181.058 156.317C180.979 156.063 180.909 155.836 180.83 155.643L180.156 158.058L180.209 158.145Z" fill="#FAE659" stroke="#121212" stroke-width="0.437444" stroke-miterlimit="10"/>
<path d="M183.804 157.445L185.012 157.095L183.979 153.543L182.929 154.147L182.649 153.176L183.708 152.572L184.749 152.266L186.061 156.789L187.278 156.439L187.549 157.393L184.049 158.399L183.804 157.445Z" fill="#FAE659" stroke="#121212" stroke-width="0.437444" stroke-miterlimit="10"/>
<path d="M187.567 154.427C187.306 153.701 187.248 152.917 187.401 152.161C187.494 151.902 187.647 151.668 187.848 151.479C188.048 151.29 188.291 151.151 188.555 151.074C188.819 150.996 189.098 150.982 189.369 151.033C189.64 151.083 189.895 151.197 190.113 151.365C190.646 151.923 191.018 152.615 191.189 153.368C191.451 154.094 191.508 154.878 191.356 155.634C191.262 155.894 191.108 156.128 190.906 156.317C190.705 156.506 190.461 156.645 190.196 156.722C189.93 156.798 189.651 156.811 189.379 156.759C189.108 156.707 188.853 156.591 188.635 156.422C188.104 155.866 187.735 155.176 187.567 154.427ZM188.818 151.977C188.565 152.047 188.433 152.248 188.407 152.59C188.405 153.108 188.491 153.623 188.661 154.112C188.722 154.313 188.775 154.506 188.836 154.672L189.518 152.292C189.449 152.175 189.343 152.084 189.216 152.035C189.089 151.985 188.949 151.98 188.818 152.021V151.977ZM189.256 155.52C189.32 155.639 189.422 155.733 189.546 155.787C189.669 155.841 189.808 155.852 189.938 155.818C190.064 155.774 190.172 155.691 190.246 155.581C190.321 155.47 190.357 155.338 190.349 155.205C190.352 154.69 190.267 154.178 190.096 153.692C190.026 153.438 189.947 153.211 189.877 153.018L189.186 155.424C189.207 155.458 189.23 155.49 189.256 155.52Z" fill="#FAE659" stroke="#121212" stroke-width="0.437444" stroke-miterlimit="10"/>
<path d="M192.842 154.821L194.059 154.471L193.026 150.91L191.976 151.522L191.696 150.542L192.746 149.947L193.796 149.641L195.108 154.164L196.316 153.814L196.596 154.768L193.096 155.774L192.842 154.821Z" fill="#FAE659" stroke="#121212" stroke-width="0.437444" stroke-miterlimit="10"/>
<path d="M196.611 151.793C196.345 151.071 196.287 150.289 196.445 149.536C196.516 149.264 196.66 149.016 196.862 148.82C197.064 148.625 197.316 148.488 197.591 148.425C197.856 148.332 198.141 148.312 198.417 148.368C198.692 148.423 198.948 148.552 199.157 148.74C199.652 149.325 200.018 150.007 200.232 150.742C200.446 151.478 200.503 152.25 200.399 153.009C200.305 153.269 200.151 153.503 199.95 153.692C199.748 153.881 199.505 154.02 199.239 154.097C198.974 154.174 198.694 154.186 198.423 154.134C198.151 154.082 197.896 153.967 197.678 153.797C197.145 153.24 196.776 152.547 196.611 151.793ZM197.862 149.344C197.733 149.386 197.622 149.47 197.546 149.582C197.47 149.695 197.433 149.829 197.442 149.965C197.445 150.48 197.53 150.991 197.696 151.478C197.757 151.688 197.818 151.872 197.879 152.047L198.553 149.667C198.49 149.544 198.388 149.445 198.263 149.387C198.138 149.328 197.997 149.313 197.862 149.344ZM198.299 152.896C198.359 153.02 198.46 153.118 198.586 153.174C198.711 153.23 198.853 153.239 198.984 153.2C199.116 153.161 199.23 153.077 199.305 152.962C199.379 152.846 199.411 152.708 199.393 152.572C199.391 152.057 199.305 151.546 199.139 151.058C199.069 150.805 198.991 150.577 198.921 150.385L198.229 152.799L198.299 152.896Z" fill="#FAE659" stroke="#121212" stroke-width="0.437444" stroke-miterlimit="10"/>
<path d="M201.89 152.196L203.106 151.837L202.03 148.285L200.988 148.889L200.708 147.918L201.758 147.314L202.808 147.008L204.121 151.531L205.328 151.181L205.608 152.135L202.108 153.149L201.89 152.196Z" fill="#FAE659" stroke="#121212" stroke-width="0.437444" stroke-miterlimit="10"/>
<path d="M205.66 149.169C205.396 148.443 205.335 147.66 205.485 146.903C205.578 146.643 205.732 146.409 205.934 146.22C206.135 146.031 206.379 145.892 206.644 145.815C206.91 145.738 207.19 145.726 207.461 145.778C207.732 145.83 207.988 145.946 208.206 146.115C208.741 146.672 209.113 147.365 209.282 148.119C209.539 148.843 209.597 149.622 209.448 150.376C209.354 150.636 209.2 150.87 208.999 151.059C208.797 151.248 208.554 151.387 208.288 151.463C208.023 151.54 207.743 151.553 207.472 151.501C207.2 151.449 206.945 151.333 206.727 151.163C206.194 150.61 205.824 149.92 205.66 149.169ZM206.902 146.719C206.776 146.763 206.668 146.846 206.594 146.956C206.52 147.067 206.484 147.199 206.491 147.331C206.493 147.849 206.579 148.363 206.745 148.854C206.806 149.064 206.867 149.247 206.928 149.414L207.602 147.034C207.539 146.91 207.435 146.811 207.307 146.753C207.18 146.696 207.037 146.684 206.902 146.719ZM207.348 150.262C207.408 150.385 207.508 150.482 207.633 150.538C207.757 150.593 207.897 150.603 208.028 150.565C208.159 150.528 208.272 150.445 208.348 150.332C208.423 150.219 208.457 150.083 208.442 149.947C208.44 149.432 208.355 148.921 208.188 148.434C208.126 148.205 208.05 147.98 207.961 147.76L207.278 150.166C207.299 150.203 207.322 150.238 207.348 150.271V150.262Z" fill="#FAE659" stroke="#121212" stroke-width="0.437444" stroke-miterlimit="10"/>
<path d="M210.939 149.562L212.146 149.212L211.114 145.66L210.072 146.264L209.784 145.284L210.842 144.689L211.883 144.383L213.205 148.906L214.412 148.556L214.692 149.51L211.192 150.516L210.939 149.562Z" fill="#FAE659" stroke="#121212" stroke-width="0.437444" stroke-miterlimit="10"/>
<path d="M215.462 148.25L216.67 147.9L215.637 144.348L214.596 144.952L214.281 143.972L215.34 143.377L216.381 143.071L217.702 147.594L218.909 147.244L219.189 148.198L215.69 149.204L215.462 148.25Z" fill="#FAE659" stroke="#121212" stroke-width="0.437444" stroke-miterlimit="10"/>
<path d="M196.998 116.019L191.39 117.655C190.645 117.869 189.846 117.779 189.168 117.406C188.489 117.032 187.986 116.404 187.768 115.661C187.555 114.914 187.647 114.112 188.025 113.433C188.402 112.754 189.034 112.252 189.781 112.039L195.389 110.411C196.132 110.195 196.931 110.282 197.611 110.655C198.29 111.027 198.793 111.654 199.011 112.397C199.117 112.767 199.15 113.155 199.107 113.537C199.063 113.92 198.944 114.29 198.757 114.627C198.57 114.963 198.319 115.26 198.017 115.499C197.715 115.738 197.369 115.915 196.998 116.019Z" stroke="#121212" stroke-width="0.874887" stroke-linecap="round" stroke-linejoin="round"/>
<path d="M205.02 113.692L199.403 115.32C198.659 115.536 197.86 115.449 197.181 115.076C196.502 114.704 195.998 114.077 195.781 113.334C195.567 112.588 195.657 111.787 196.03 111.107C196.404 110.427 197.031 109.922 197.776 109.703L203.375 108.075C203.744 107.968 204.13 107.935 204.512 107.977C204.894 108.02 205.263 108.137 205.6 108.322C205.936 108.507 206.233 108.757 206.472 109.057C206.712 109.357 206.891 109.701 206.997 110.07C207.106 110.438 207.141 110.823 207.1 111.205C207.06 111.586 206.944 111.955 206.76 112.292C206.577 112.628 206.328 112.925 206.03 113.165C205.731 113.406 205.388 113.585 205.02 113.692Z" stroke="#121212" stroke-width="0.874887" stroke-linecap="round" stroke-linejoin="round"/>
<path d="M232.649 75.7572C232.649 75.7572 225.264 91.5051 219.98 96.5794C214.696 101.654 193.095 115.827 187.67 121.706C181.153 128.828 187.548 136.579 192.15 138.985C196.752 141.391 200.251 141.024 213.077 133.683C225.903 126.343 230.024 112.782 243.261 109.939C256.498 107.096 272.509 107.236 284.538 98.373C296.568 89.5104 301.441 85.6084 301.292 84.7685" fill="#FAE659"/>
<path d="M232.649 75.7572C232.649 75.7572 225.264 91.5051 219.98 96.5794C214.696 101.654 193.095 115.827 187.67 121.706C181.153 128.828 187.548 136.579 192.15 138.985C196.752 141.391 200.251 141.024 213.077 133.683C225.903 126.343 230.024 112.782 243.261 109.939C256.498 107.096 272.509 107.236 284.538 98.373C296.568 89.5104 301.441 85.6084 301.292 84.7685" stroke="#121212" stroke-width="0.874887" stroke-linecap="round" stroke-linejoin="round"/>
<path d="M201.094 137.148C206.142 133.071 206.842 131.129 205.932 130.149C205.022 129.169 197.069 118.539 197.069 118.539C197.069 118.539 189.143 122.039 186.833 124.663C184.523 127.288 185.713 132.476 190.385 136.037C195.057 139.598 198.618 138.941 199.563 138.408" stroke="#121212" stroke-width="0.874887" stroke-linecap="round" stroke-linejoin="round"/>
<path d="M323.095 16.9913L303.673 28.5922L336.018 83.1588L375.509 47.4999L336.018 10.9999L323.095 16.9913Z" fill="black" stroke="#121212" stroke-width="0.874887" stroke-linecap="round" stroke-linejoin="round"/>
<rect x="1" y="1" width="380" height="189" rx="94.5" stroke="black" stroke-width="2"/>
</g>
</svg>
