<svg width="382" height="191" viewBox="0 0 382 191" fill="none" xmlns="http://www.w3.org/2000/svg">
<mask id="mask0_378_289" style="mask-type:alpha" maskUnits="userSpaceOnUse" x="0" y="0" width="382" height="191">
<rect x="1" y="1" width="380" height="189" rx="94.5" fill="#D9D9D9" stroke="black" stroke-width="2"/>
</mask>
<g mask="url(#mask0_378_289)">
<path opacity="0.1" d="M283.108 220.431L275.482 210.06C275.482 210.06 276.589 168.58 277.275 162.747C277.961 156.913 270.778 145.706 268.531 136.066C266.284 126.425 263.135 120.597 263.135 120.597C262.465 96.3786 260.218 99.262 260.218 99.262C249.648 97.1258 245.276 108.67 243.97 119.186V77.2962C243.97 75.6069 243.638 73.9341 242.992 72.3733C242.346 70.8125 241.399 69.3943 240.204 68.1999C239.01 67.0054 237.591 66.058 236.031 65.4119C234.47 64.7658 232.797 64.4336 231.108 64.4343H168.742C167.053 64.4336 165.38 64.7658 163.819 65.4119C162.259 66.058 160.84 67.0054 159.646 68.1999C158.451 69.3943 157.504 70.8125 156.858 72.3733C156.212 73.9341 155.88 75.6069 155.88 77.2962V100.065C150.346 98.7418 143.417 98.5758 141.403 103.33C140.691 104.992 140.461 106.821 140.739 108.608C141.017 110.395 141.792 112.068 142.975 113.436C142.975 113.436 130.417 108.504 127.949 117.022C125.481 125.539 134.9 133.359 134.9 133.359C134.9 133.359 131.989 134.931 130.417 143.675C128.846 152.42 131.314 154.882 133.334 161.164C135.354 167.445 140.733 171.026 140.733 171.026C140.733 171.026 137.368 176.859 140.733 185.825C143.412 192.975 152.355 202.826 155.88 206.529V229.607C155.88 233.018 157.236 236.29 159.648 238.702C162.06 241.114 165.331 242.469 168.742 242.469H187.26C206.292 257.666 236.919 268.896 236.919 268.896L240.156 272.1C260.871 265.664 279.107 251.335 294.182 230.354C287.237 224.217 283.108 220.431 283.108 220.431Z" fill="#121212"/>
<path d="M287.647 219.218L280.026 208.847C280.026 208.847 281.133 167.367 281.819 161.534C282.505 155.7 275.316 144.493 273.075 134.852C270.833 125.212 267.69 119.384 267.69 119.384C267.02 95.1655 264.779 98.0489 264.779 98.0489C249.084 94.8777 247.069 121.847 248.408 130.818C249.748 139.789 251.325 154.616 251.325 154.616C251.325 154.616 240.561 156.409 234.058 148.561C227.555 140.713 212.314 133.065 212.314 133.065C212.314 133.065 197.067 121.631 189.889 116.024C182.711 110.418 169.49 101.901 163.878 99.8807C158.266 97.8607 148.382 96.2945 145.941 102.122C145.23 103.782 145 105.607 145.277 107.391C145.554 109.175 146.327 110.845 147.508 112.211C147.508 112.211 134.95 107.28 132.488 115.803C130.025 124.326 139.439 132.168 139.439 132.168C139.439 132.168 136.522 133.74 134.95 142.484C133.379 151.229 135.852 153.691 137.867 159.973C139.881 166.254 145.272 169.83 145.272 169.83C145.272 169.83 141.907 175.663 145.272 184.628C148.637 193.594 161.875 206.827 161.875 206.827C161.875 206.827 168.604 219.157 186.541 236.646C204.477 254.134 241.469 267.705 241.469 267.705L244.706 270.903C265.421 264.467 283.656 250.139 298.732 229.158C291.781 223.015 287.647 219.218 287.647 219.218ZM192.695 150.326C190.481 151.671 170.325 132.5 170.325 132.5L153.346 116.523C153.346 116.523 165.953 126.108 170.663 130.314C175.373 134.52 194.881 148.982 192.695 150.326Z" fill="#FAE659"/>
<mask id="mask1_378_289" style="mask-type:luminance" maskUnits="userSpaceOnUse" x="132" y="97" width="167" height="174">
<path d="M287.777 219.218L280.156 208.847C280.156 208.847 281.263 167.367 281.949 161.533C282.636 155.7 275.447 144.493 273.205 134.852C270.964 125.211 267.82 119.384 267.82 119.384C267.151 95.1654 264.909 98.0487 264.909 98.0487C249.214 94.8776 247.2 121.846 248.539 130.818C249.878 139.789 251.455 154.615 251.455 154.615C251.455 154.615 240.691 156.409 234.188 148.561C227.686 140.713 212.444 133.065 212.444 133.065C212.444 133.065 197.197 121.631 190.019 116.024C182.841 110.418 169.62 101.901 164.008 99.8806C158.397 97.8606 148.512 96.2944 146.072 102.122C145.361 103.781 145.131 105.607 145.408 107.391C145.685 109.175 146.457 110.845 147.638 112.211C147.638 112.211 135.081 107.28 132.618 115.803C130.155 124.326 139.569 132.168 139.569 132.168C139.569 132.168 136.652 133.74 135.081 142.484C133.509 151.228 135.983 153.691 137.997 159.973C140.012 166.254 145.402 169.829 145.402 169.829C145.402 169.829 142.037 175.663 145.402 184.628C148.767 193.594 162.005 206.827 162.005 206.827C162.005 206.827 168.735 219.157 186.671 236.646C204.608 254.134 241.599 267.705 241.599 267.705L244.836 270.903C265.551 264.467 283.787 250.138 298.862 229.158C291.911 223.015 287.777 219.218 287.777 219.218ZM192.825 150.326C190.612 151.671 170.456 132.5 170.456 132.5L153.477 116.522C153.477 116.522 166.084 126.108 170.793 130.314C175.503 134.52 195.011 148.981 192.825 150.326Z" fill="white"/>
</mask>
<g mask="url(#mask1_378_289)">
<path opacity="0.2" d="M151.939 144.98C151.86 144.837 151.736 144.724 151.586 144.658C151.437 144.592 151.27 144.578 151.111 144.616C150.952 144.654 150.81 144.744 150.707 144.87C150.603 144.997 150.545 145.154 150.539 145.318C150.467 147.841 150.069 151.654 148.508 154.61C146.073 159.165 158.94 157.803 151.939 144.98Z" fill="#121212"/>
<path opacity="0.2" d="M256.911 145.583C255.931 140.447 252.19 138.975 251.886 129.678C251.875 128.915 251.773 128.157 251.581 127.42V80.9696C251.581 78.9208 251.178 76.8921 250.394 74.9993C249.61 73.1064 248.46 71.3865 247.012 69.9378C245.563 68.4891 243.843 67.3399 241.95 66.5559C240.058 65.7718 238.029 65.3683 235.98 65.3683H179.071C174.934 65.3683 170.966 67.012 168.04 69.9378C165.114 72.8636 163.47 76.8319 163.47 80.9696V109.56H160.587C160.587 109.56 160.532 120.12 155.49 118.055C155.49 118.055 159.264 127.491 158.041 136.319C156.818 145.146 150.149 136.568 150.149 136.568C150.149 136.568 149.994 140.243 155.368 147.57C160.1 154.023 159.475 163.304 155.595 163.443C157.621 164.284 160.548 166.608 159.663 172.884C159.298 174.462 158.24 176.62 155.235 177.865C151.09 179.57 157.078 181.496 159.569 182.182V206.81L163.476 207.325V227.863C163.476 232 165.12 235.969 168.045 238.894C170.971 241.82 174.939 243.464 179.077 243.464H235.98C240.118 243.464 244.086 241.82 247.012 238.894C249.938 235.969 251.581 232 251.581 227.863V158.124C251.585 157.101 251.796 156.089 252.201 155.149C252.606 154.209 253.197 153.361 253.939 152.656C255.627 151.068 257.47 148.522 256.911 145.583Z" fill="#121212"/>
</g>
<path d="M148.388 165.796C149.822 164.047 151.974 162.027 153.695 162.94C153.695 162.94 160.929 163.781 159.412 173.533L165.135 180.954C165.135 180.954 174.044 186.334 172.196 194.408" stroke="#121212" stroke-width="0.553432" stroke-linecap="round" stroke-linejoin="round"/>
<path d="M146.792 167.981C146.792 167.981 147.042 167.571 147.468 166.979" stroke="#121212" stroke-width="0.553432" stroke-linecap="round" stroke-linejoin="round"/>
<path d="M150.341 138.068C151.746 143.364 153.158 144.775 153.158 144.775L160.557 154.864C160.557 154.864 165.1 154.864 176.534 166.974" stroke="#121212" stroke-width="0.553432" stroke-linecap="round" stroke-linejoin="round"/>
<path d="M145.372 131.648C146.524 131.933 147.569 132.547 148.379 133.414C149.19 134.282 149.731 135.366 149.937 136.535" stroke="#121212" stroke-width="0.553432" stroke-linecap="round" stroke-linejoin="round"/>
<path d="M141.275 131.493C142.056 131.352 142.852 131.308 143.644 131.36" stroke="#121212" stroke-width="0.553432" stroke-linecap="round" stroke-linejoin="round"/>
<path d="M264.597 102.239C264.68 101.851 264.774 101.458 264.868 101.054" stroke="#121212" stroke-width="0.553432" stroke-linecap="round" stroke-linejoin="round"/>
<path d="M265.796 118.039C265.796 118.039 261.972 115.538 264.229 103.65" stroke="#121212" stroke-width="0.553432" stroke-linecap="round" stroke-linejoin="round"/>
<path d="M254.773 150.681C242.597 167.372 232.503 206.921 253.505 230.514" stroke="#121212" stroke-width="0.553432" stroke-linecap="round" stroke-linejoin="round"/>
<path d="M269.468 132.882C275.351 140.758 279.379 152.861 281.228 156.985" stroke="#121212" stroke-width="0.553432" stroke-linecap="round" stroke-linejoin="round"/>
<path d="M298.721 229.158C291.781 223.004 287.652 219.196 287.652 219.196L280.026 208.847C280.026 208.847 281.133 167.367 281.819 161.534C282.505 155.7 275.316 144.493 273.075 134.852C270.833 125.212 267.69 119.384 267.69 119.384C267.02 95.1655 264.779 98.0489 264.779 98.0489C249.084 94.8777 247.069 121.847 248.409 130.818C249.748 139.789 251.325 154.616 251.325 154.616C251.325 154.616 240.561 156.409 234.058 148.561C227.555 140.713 212.314 133.065 212.314 133.065C212.314 133.065 197.067 121.631 189.889 116.024C182.711 110.418 169.49 101.901 163.878 99.8807C158.266 97.8607 148.382 96.2945 145.941 102.122C145.23 103.782 145 105.607 145.277 107.391C145.554 109.175 146.327 110.845 147.508 112.211C147.508 112.211 134.95 107.28 132.488 115.803C130.025 124.326 139.439 132.168 139.439 132.168C139.439 132.168 136.522 133.74 134.95 142.484C133.379 151.229 135.852 153.691 137.867 159.973C139.881 166.254 145.272 169.83 145.272 169.83C145.272 169.83 141.907 175.663 145.272 184.628C148.637 193.594 161.875 206.827 161.875 206.827C161.875 206.827 168.604 219.157 186.541 236.646C204.477 254.134 241.469 267.705 241.469 267.705L244.706 270.903" stroke="#121212" stroke-width="0.553432" stroke-linecap="round" stroke-linejoin="round"/>
<path d="M150.341 113.539C150.341 113.539 154.425 115.874 158.642 121.508" stroke="#121212" stroke-width="0.553432" stroke-linecap="round" stroke-linejoin="round"/>
<path d="M236.09 63.2217H171.496C165.004 63.2217 159.741 68.4846 159.741 74.9767V229.518C159.741 236.01 165.004 241.273 171.496 241.273H236.09C242.582 241.273 247.845 236.01 247.845 229.518V74.9767C247.845 68.4846 242.582 63.2217 236.09 63.2217Z" fill="#121212"/>
<path d="M233.85 68.9116H226.86C226.62 68.9109 226.383 68.9575 226.162 69.0486C225.94 69.1398 225.739 69.2738 225.569 69.443C225.399 69.6121 225.265 69.8131 225.173 70.0344C225.081 70.2556 225.034 70.4929 225.034 70.7324C225.034 72.3177 224.404 73.838 223.283 74.9589C222.162 76.0798 220.642 76.7095 219.057 76.7095H192.139C190.554 76.7095 189.033 76.0798 187.912 74.9589C186.792 73.838 186.162 72.3177 186.162 70.7324C186.162 70.2495 185.97 69.7864 185.629 69.4449C185.287 69.1035 184.824 68.9116 184.341 68.9116H173.826C171.614 68.9116 169.493 69.7903 167.929 71.3544C166.365 72.9185 165.486 75.0399 165.486 77.2519V227.233C165.486 229.445 166.365 231.566 167.929 233.13C169.493 234.695 171.614 235.573 173.826 235.573H233.872C236.078 235.567 238.192 234.688 239.751 233.127C241.31 231.566 242.187 229.45 242.19 227.244V77.263C242.191 76.1668 241.976 75.0811 241.558 74.0679C241.139 73.0547 240.525 72.134 239.751 71.3584C238.976 70.5827 238.056 69.9674 237.044 69.5475C236.031 69.1277 234.946 68.9116 233.85 68.9116Z" fill="#FAE659" stroke="#121212" stroke-width="0.415074" stroke-linecap="round" stroke-linejoin="round"/>
<path d="M162.785 127.144V192.128" stroke="#121212" stroke-width="0.553432" stroke-linecap="round" stroke-linejoin="round"/>
<path d="M162.785 82.3926V118.93" stroke="#121212" stroke-width="0.553432" stroke-linecap="round" stroke-linejoin="round"/>
<path d="M162.785 76.1887V79.3654" stroke="#121212" stroke-width="0.553432" stroke-linecap="round" stroke-linejoin="round"/>
<path d="M244.708 105.078V101.613" stroke="#121212" stroke-width="0.553432" stroke-linecap="round" stroke-linejoin="round"/>
<path d="M244.708 175.076V110.092" stroke="#121212" stroke-width="0.553432" stroke-linecap="round" stroke-linejoin="round"/>
<path d="M244.708 219.827V183.289" stroke="#121212" stroke-width="0.553432" stroke-linecap="round" stroke-linejoin="round"/>
<path d="M214.424 71.0414C214.424 71.2745 214.355 71.5024 214.225 71.6963C214.096 71.8901 213.912 72.0412 213.696 72.1305C213.481 72.2197 213.244 72.243 213.015 72.1975C212.787 72.1521 212.577 72.0398 212.412 71.8749C212.247 71.7101 212.135 71.5 212.089 71.2713C212.044 71.0427 212.067 70.8057 212.156 70.5903C212.245 70.3749 212.396 70.1907 212.59 70.0612C212.784 69.9317 213.012 69.8625 213.245 69.8625C213.558 69.8625 213.858 69.9867 214.079 70.2078C214.3 70.4289 214.424 70.7287 214.424 71.0414Z" fill="#FAE659" stroke="#121212" stroke-width="0.553432" stroke-linecap="round" stroke-linejoin="round"/>
<path d="M207.389 69.8629H199.857C199.545 69.8629 199.245 69.9871 199.024 70.2082C198.803 70.4293 198.679 70.7291 198.679 71.0417C198.679 71.3544 198.803 71.6542 199.024 71.8753C199.245 72.0964 199.545 72.2206 199.857 72.2206H207.389C207.702 72.2206 208.002 72.0964 208.223 71.8753C208.444 71.6542 208.568 71.3544 208.568 71.0417C208.568 70.7291 208.444 70.4293 208.223 70.2082C208.002 69.9871 207.702 69.8629 207.389 69.8629Z" fill="#FAE659" stroke="#121212" stroke-width="0.553432" stroke-linecap="round" stroke-linejoin="round"/>
<path d="M235.578 82.9739H173.734C171.862 82.9739 170.345 83.5725 170.345 84.311V105.434C170.345 106.173 171.862 106.772 173.734 106.772H235.578C237.451 106.772 238.968 106.173 238.968 105.434V84.311C238.968 83.5725 237.451 82.9739 235.578 82.9739Z" fill="#121212" stroke="#121212" stroke-width="0.553432" stroke-linecap="round" stroke-linejoin="round"/>
<path d="M234.482 81.8677H172.14C170.252 81.8677 168.723 82.4524 168.723 83.1738V103.806C168.723 104.527 170.252 105.112 172.14 105.112H234.482C236.37 105.112 237.899 104.527 237.899 103.806V83.1738C237.899 82.4524 236.37 81.8677 234.482 81.8677Z" fill="#FAE659"/>
<mask id="mask2_378_289" style="mask-type:luminance" maskUnits="userSpaceOnUse" x="168" y="81" width="70" height="25">
<path d="M234.494 81.8679H172.151C170.264 81.8679 168.734 82.4527 168.734 83.174V103.806C168.734 104.527 170.264 105.112 172.151 105.112H234.494C236.381 105.112 237.911 104.527 237.911 103.806V83.174C237.911 82.4527 236.381 81.8679 234.494 81.8679Z" fill="white"/>
</mask>
<g mask="url(#mask2_378_289)">
<path opacity="0.7" d="M234.502 81.8677H172.159C170.272 81.8677 168.742 82.4524 168.742 83.1738V103.806C168.742 104.527 170.272 105.112 172.159 105.112H234.502C236.389 105.112 237.919 104.527 237.919 103.806V83.1738C237.919 82.4524 236.389 81.8677 234.502 81.8677Z" fill="#FAE659"/>
</g>
<path d="M234.482 81.8677H172.14C170.252 81.8677 168.723 82.4524 168.723 83.1738V103.806C168.723 104.527 170.252 105.112 172.14 105.112H234.482C236.37 105.112 237.899 104.527 237.899 103.806V83.1738C237.899 82.4524 236.37 81.8677 234.482 81.8677Z" stroke="#121212" stroke-width="0.553432" stroke-linecap="round" stroke-linejoin="round"/>
<path d="M183.077 99.9037C187.039 98.2464 188.907 93.6913 187.25 89.7295C185.593 85.7677 181.038 83.8995 177.076 85.5568C173.114 87.214 171.246 91.7692 172.903 95.7309C174.561 99.6927 179.116 101.561 183.077 99.9037Z" fill="#FAE659"/>
<mask id="mask3_378_289" style="mask-type:luminance" maskUnits="userSpaceOnUse" x="172" y="84" width="16" height="17">
<path d="M182.971 99.9034C186.933 98.2462 188.801 93.6911 187.144 89.7293C185.487 85.7675 180.932 83.8993 176.97 85.5565C173.008 87.2138 171.14 91.7689 172.797 95.7307C174.455 99.6925 179.01 101.561 182.971 99.9034Z" fill="white"/>
</mask>
<g mask="url(#mask3_378_289)">
<path d="M183.274 94.7279H181.852V94.4013C182.892 93.5933 183.175 91.9939 183.175 90.3889C183.175 88.1088 181.741 86.6975 179.97 86.6975C178.199 86.6975 176.772 88.1088 176.772 90.3889C176.772 91.9939 177.054 93.5933 178.094 94.4013V94.7279H176.667C176.018 94.728 175.391 94.962 174.901 95.3869C174.411 95.8118 174.091 96.3992 173.999 97.0412L173.468 100.705H186.484L185.931 97.0191C185.833 96.3834 185.512 95.8035 185.025 95.3834C184.538 94.9634 183.917 94.731 183.274 94.7279Z" fill="#121212"/>
</g>
<path d="M183.077 99.9037C187.039 98.2464 188.907 93.6913 187.25 89.7295C185.593 85.7677 181.038 83.8995 177.076 85.5568C173.114 87.214 171.246 91.7692 172.903 95.7309C174.561 99.6927 179.116 101.561 183.077 99.9037Z" stroke="#121212" stroke-width="0.415074" stroke-linecap="round" stroke-linejoin="round"/>
<path d="M226.087 87.7773H191.892C191.387 87.7773 190.979 88.1862 190.979 88.6905V88.8565C190.979 89.3609 191.387 89.7697 191.892 89.7697H226.087C226.591 89.7697 227 89.3609 227 88.8565V88.6905C227 88.1862 226.591 87.7773 226.087 87.7773Z" fill="#121212" stroke="#121212" stroke-width="0.415074" stroke-linecap="round" stroke-linejoin="round"/>
<path d="M218.129 93.7152H191.975C191.71 93.7152 191.457 93.6102 191.27 93.4234C191.083 93.2366 190.979 92.9832 190.979 92.719C190.978 92.588 191.003 92.4581 191.053 92.3369C191.103 92.2157 191.176 92.1056 191.269 92.0129C191.361 91.9203 191.471 91.8469 191.593 91.7971C191.714 91.7473 191.844 91.7221 191.975 91.7228H218.129C218.26 91.7221 218.39 91.7473 218.511 91.7971C218.632 91.8469 218.742 91.9203 218.835 92.0129C218.928 92.1056 219.001 92.2157 219.051 92.3369C219.101 92.4581 219.126 92.588 219.125 92.719C219.125 92.8498 219.099 92.9793 219.049 93.1002C218.999 93.2211 218.926 93.3309 218.833 93.4234C218.741 93.5159 218.631 93.5893 218.51 93.6393C218.389 93.6894 218.26 93.7152 218.129 93.7152Z" fill="#121212" stroke="#121212" stroke-width="0.415074" stroke-linecap="round" stroke-linejoin="round"/>
<path d="M221.167 97.6555H191.975C191.844 97.6562 191.714 97.6309 191.593 97.5811C191.471 97.5313 191.361 97.458 191.269 97.3653C191.176 97.2727 191.103 97.1626 191.053 97.0414C191.003 96.9202 190.978 96.7903 190.979 96.6593C190.979 96.3951 191.083 96.1417 191.27 95.9549C191.457 95.768 191.71 95.6631 191.975 95.6631H221.167C221.431 95.6631 221.685 95.768 221.872 95.9549C222.058 96.1417 222.163 96.3951 222.163 96.6593C222.164 96.7903 222.139 96.9202 222.089 97.0414C222.039 97.1626 221.966 97.2727 221.873 97.3653C221.781 97.458 221.671 97.5313 221.549 97.5811C221.428 97.6309 221.298 97.6562 221.167 97.6555Z" fill="#121212" stroke="#121212" stroke-width="0.415074" stroke-linecap="round" stroke-linejoin="round"/>
<path d="M235.749 147.2H173.551C171.668 147.2 170.142 148.726 170.142 150.609V165.784C170.142 167.667 171.668 169.193 173.551 169.193H235.749C237.632 169.193 239.158 167.667 239.158 165.784V150.609C239.158 148.726 237.632 147.2 235.749 147.2Z" fill="#121212" stroke="#121212" stroke-width="0.553432" stroke-linecap="round" stroke-linejoin="round"/>
<path d="M234.561 145.987H172.363C170.48 145.987 168.954 147.513 168.954 149.396V164.571C168.954 166.454 170.48 167.981 172.363 167.981H234.561C236.444 167.981 237.97 166.454 237.97 164.571V149.396C237.97 147.513 236.444 145.987 234.561 145.987Z" fill="#FAE659"/>
<mask id="mask4_378_289" style="mask-type:luminance" maskUnits="userSpaceOnUse" x="168" y="145" width="70" height="23">
<path d="M234.559 145.987H172.361C170.478 145.987 168.952 147.513 168.952 149.396V164.571C168.952 166.454 170.478 167.981 172.361 167.981H234.559C236.442 167.981 237.968 166.454 237.968 164.571V149.396C237.968 147.513 236.442 145.987 234.559 145.987Z" fill="white"/>
</mask>
<g mask="url(#mask4_378_289)">
<path opacity="0.7" d="M234.567 145.987H172.369C170.486 145.987 168.959 147.513 168.959 149.396V164.571C168.959 166.454 170.486 167.981 172.369 167.981H234.567C236.45 167.981 237.976 166.454 237.976 164.571V149.396C237.976 147.513 236.45 145.987 234.567 145.987Z" fill="#FAE659" stroke="#121212" stroke-width="0.553432" stroke-linecap="round" stroke-linejoin="round"/>
</g>
<path d="M234.561 145.987H172.363C170.48 145.987 168.954 147.513 168.954 149.396V164.571C168.954 166.454 170.48 167.981 172.363 167.981H234.561C236.444 167.981 237.97 166.454 237.97 164.571V149.396C237.97 147.513 236.444 145.987 234.561 145.987Z" stroke="#121212" stroke-width="0.553432" stroke-linecap="round" stroke-linejoin="round"/>
<path d="M183.077 164.172C187.039 162.515 188.907 157.959 187.25 153.998C185.593 150.036 181.038 148.168 177.076 149.825C173.114 151.482 171.246 156.037 172.903 159.999C174.561 163.961 179.116 165.829 183.077 164.172Z" fill="#FAE659"/>
<mask id="mask5_378_289" style="mask-type:luminance" maskUnits="userSpaceOnUse" x="172" y="149" width="16" height="16">
<path d="M182.984 164.171C186.946 162.514 188.814 157.958 187.157 153.997C185.499 150.035 180.944 148.167 176.983 149.824C173.021 151.481 171.153 156.036 172.81 159.998C174.467 163.96 179.022 165.828 182.984 164.171Z" fill="white"/>
</mask>
<g mask="url(#mask5_378_289)">
<path d="M183.296 159.447H181.874V159.12C182.914 158.312 183.197 156.713 183.197 155.108C183.197 152.833 181.763 151.422 179.992 151.422C178.221 151.422 176.81 152.833 176.81 155.108C176.81 156.713 177.092 158.312 178.133 159.12V159.447H176.705C176.057 159.447 175.43 159.681 174.94 160.106C174.45 160.531 174.13 161.118 174.038 161.76L173.49 165.457H186.506L185.953 161.766C185.861 161.125 185.543 160.538 185.055 160.113C184.568 159.687 183.943 159.451 183.296 159.447Z" fill="#121212"/>
</g>
<path d="M183.077 164.172C187.039 162.515 188.907 157.959 187.25 153.998C185.593 150.036 181.038 148.168 177.076 149.825C173.114 151.482 171.246 156.037 172.903 159.999C174.561 163.961 179.116 165.829 183.077 164.172Z" stroke="#121212" stroke-width="0.415074" stroke-linecap="round" stroke-linejoin="round"/>
<path d="M225.999 154.039H191.975C191.71 154.039 191.457 153.934 191.27 153.747C191.083 153.561 190.979 153.307 190.979 153.043C190.978 152.912 191.003 152.782 191.053 152.661C191.103 152.54 191.176 152.43 191.269 152.337C191.361 152.244 191.471 152.171 191.593 152.121C191.714 152.071 191.844 152.046 191.975 152.047H225.999C226.13 152.046 226.26 152.071 226.382 152.121C226.503 152.171 226.613 152.244 226.707 152.337C226.8 152.429 226.874 152.539 226.924 152.661C226.974 152.782 227 152.912 227 153.043C226.999 153.308 226.893 153.561 226.705 153.748C226.517 153.934 226.263 154.039 225.999 154.039Z" fill="#121212" stroke="#121212" stroke-width="0.415074" stroke-linecap="round" stroke-linejoin="round"/>
<path d="M213.895 157.981H191.975C191.844 157.982 191.714 157.957 191.593 157.907C191.471 157.857 191.361 157.784 191.269 157.691C191.176 157.598 191.103 157.488 191.053 157.367C191.003 157.246 190.978 157.116 190.979 156.985C190.979 156.721 191.083 156.467 191.27 156.281C191.457 156.094 191.71 155.989 191.975 155.989H213.895C214.159 155.99 214.412 156.096 214.598 156.282C214.785 156.469 214.89 156.721 214.892 156.985C214.892 157.116 214.866 157.245 214.816 157.366C214.766 157.487 214.692 157.597 214.6 157.689C214.507 157.782 214.397 157.855 214.277 157.905C214.156 157.955 214.026 157.981 213.895 157.981Z" fill="#121212" stroke="#121212" stroke-width="0.415074" stroke-linecap="round" stroke-linejoin="round"/>
<path d="M222.368 161.922H191.975C191.844 161.923 191.714 161.897 191.593 161.847C191.471 161.798 191.361 161.724 191.269 161.632C191.176 161.539 191.103 161.429 191.053 161.308C191.003 161.187 190.978 161.057 190.979 160.926C190.979 160.795 191.004 160.665 191.054 160.544C191.104 160.424 191.178 160.314 191.27 160.221C191.363 160.129 191.473 160.055 191.593 160.005C191.714 159.955 191.844 159.929 191.975 159.929H222.368C222.499 159.929 222.629 159.955 222.749 160.005C222.87 160.055 222.98 160.129 223.073 160.221C223.165 160.314 223.238 160.424 223.289 160.544C223.339 160.665 223.364 160.795 223.364 160.926C223.365 161.057 223.34 161.187 223.29 161.308C223.24 161.429 223.167 161.539 223.074 161.632C222.982 161.724 222.871 161.798 222.75 161.847C222.629 161.897 222.499 161.923 222.368 161.922Z" fill="#121212" stroke="#121212" stroke-width="0.415074" stroke-linecap="round" stroke-linejoin="round"/>
<path d="M235.749 172.995H173.551C171.668 172.995 170.142 174.521 170.142 176.404V225.616C170.142 227.499 171.668 229.025 173.551 229.025H235.749C237.632 229.025 239.158 227.499 239.158 225.616V176.404C239.158 174.521 237.632 172.995 235.749 172.995Z" fill="#121212" stroke="#121212" stroke-width="0.553432" stroke-linecap="round" stroke-linejoin="round"/>
<path d="M234.561 171.784H172.363C170.48 171.784 168.954 173.31 168.954 175.193V224.405C168.954 226.288 170.48 227.814 172.363 227.814H234.561C236.444 227.814 237.97 226.288 237.97 224.405V175.193C237.97 173.31 236.444 171.784 234.561 171.784Z" fill="#FAE659"/>
<mask id="mask6_378_289" style="mask-type:luminance" maskUnits="userSpaceOnUse" x="168" y="171" width="70" height="57">
<path d="M234.559 171.784H172.361C170.478 171.784 168.952 173.31 168.952 175.193V224.405C168.952 226.288 170.478 227.814 172.361 227.814H234.559C236.442 227.814 237.968 226.288 237.968 224.405V175.193C237.968 173.31 236.442 171.784 234.559 171.784Z" fill="white"/>
</mask>
<g mask="url(#mask6_378_289)">
<path opacity="0.7" d="M234.567 171.784H172.369C170.486 171.784 168.959 173.31 168.959 175.193V224.405C168.959 226.288 170.486 227.814 172.369 227.814H234.567C236.45 227.814 237.976 226.288 237.976 224.405V175.193C237.976 173.31 236.45 171.784 234.567 171.784Z" fill="#FAE659"/>
</g>
<path d="M234.561 171.784H172.363C170.48 171.784 168.954 173.31 168.954 175.193V224.405C168.954 226.288 170.48 227.814 172.363 227.814H234.561C236.444 227.814 237.97 226.288 237.97 224.405V175.193C237.97 173.31 236.444 171.784 234.561 171.784Z" stroke="#121212" stroke-width="0.553432" stroke-linecap="round" stroke-linejoin="round"/>
<path d="M183.077 190.106C187.039 188.448 188.907 183.893 187.25 179.932C185.593 175.97 181.038 174.102 177.076 175.759C173.114 177.416 171.246 181.971 172.903 185.933C174.561 189.895 179.116 191.763 183.077 190.106Z" fill="#FAE659"/>
<mask id="mask7_378_289" style="mask-type:luminance" maskUnits="userSpaceOnUse" x="172" y="175" width="16" height="16">
<path d="M182.984 190.105C186.946 188.447 188.814 183.892 187.157 179.93C185.499 175.969 180.944 174.1 176.983 175.758C173.021 177.415 171.153 181.97 172.81 185.932C174.467 189.894 179.022 191.762 182.984 190.105Z" fill="white"/>
</mask>
<g mask="url(#mask7_378_289)">
<path d="M183.292 185.459H181.87V185.138C182.91 184.33 183.193 182.725 183.193 181.12C183.193 178.845 181.759 177.434 179.988 177.434C178.218 177.434 176.806 178.845 176.806 181.12C176.806 182.725 177.089 184.33 178.129 185.138V185.459H176.701C176.053 185.459 175.426 185.693 174.936 186.118C174.446 186.542 174.126 187.13 174.034 187.772L173.486 191.469H186.502L185.949 187.777C185.857 187.137 185.539 186.55 185.051 186.125C184.564 185.699 183.939 185.463 183.292 185.459Z" fill="#121212"/>
</g>
<path d="M183.077 190.106C187.039 188.448 188.907 183.893 187.25 179.932C185.593 175.97 181.038 174.102 177.076 175.759C173.114 177.416 171.246 181.971 172.903 185.933C174.561 189.895 179.116 191.763 183.077 190.106Z" stroke="#121212" stroke-width="0.415074" stroke-linecap="round" stroke-linejoin="round"/>
<path d="M221.167 179.975H191.975C191.844 179.975 191.714 179.949 191.593 179.899C191.473 179.849 191.363 179.776 191.27 179.683C191.178 179.591 191.104 179.481 191.054 179.36C191.004 179.239 190.979 179.11 190.979 178.979C190.978 178.848 191.003 178.718 191.053 178.597C191.103 178.475 191.176 178.365 191.269 178.273C191.361 178.18 191.471 178.107 191.593 178.057C191.714 178.007 191.844 177.982 191.975 177.983H221.167C221.298 177.982 221.428 178.007 221.549 178.057C221.671 178.107 221.781 178.18 221.873 178.273C221.966 178.365 222.039 178.475 222.089 178.597C222.139 178.718 222.164 178.848 222.163 178.979C222.163 179.11 222.138 179.239 222.088 179.36C222.038 179.481 221.964 179.591 221.872 179.683C221.779 179.776 221.669 179.849 221.549 179.899C221.428 179.949 221.298 179.975 221.167 179.975Z" fill="#121212" stroke="#121212" stroke-width="0.415074" stroke-linecap="round" stroke-linejoin="round"/>
<path d="M213.895 183.915H191.975C191.844 183.916 191.714 183.891 191.593 183.841C191.471 183.791 191.361 183.718 191.269 183.625C191.176 183.532 191.103 183.422 191.053 183.301C191.003 183.18 190.978 183.05 190.979 182.919C190.979 182.788 191.004 182.659 191.054 182.538C191.104 182.417 191.178 182.307 191.27 182.215C191.363 182.122 191.473 182.049 191.593 181.999C191.714 181.949 191.844 181.923 191.975 181.923H213.895C214.159 181.924 214.412 182.03 214.598 182.216C214.785 182.403 214.89 182.655 214.892 182.919C214.892 183.183 214.787 183.437 214.6 183.623C214.413 183.81 214.16 183.915 213.895 183.915Z" fill="#121212" stroke="#121212" stroke-width="0.415074" stroke-linecap="round" stroke-linejoin="round"/>
<path d="M209.656 187.856H191.975C191.844 187.856 191.714 187.831 191.593 187.781C191.471 187.732 191.361 187.658 191.269 187.566C191.176 187.473 191.103 187.363 191.053 187.242C191.003 187.12 190.978 186.991 190.979 186.859C190.979 186.595 191.083 186.342 191.27 186.155C191.457 185.968 191.71 185.863 191.975 185.863H209.656C209.92 185.865 210.173 185.97 210.359 186.157C210.546 186.343 210.651 186.596 210.652 186.859C210.652 187.124 210.547 187.377 210.361 187.564C210.174 187.751 209.92 187.856 209.656 187.856Z" fill="#121212" stroke="#121212" stroke-width="0.415074" stroke-linecap="round" stroke-linejoin="round"/>
<path d="M91.6844 167.467L88.3916 169" stroke="#121212" stroke-width="0.553432" stroke-linecap="round" stroke-linejoin="round"/>
<path d="M136.024 175.597L127.252 156.78C126.955 156.143 126.536 155.57 126.018 155.096C125.5 154.621 124.893 154.252 124.233 154.012C123.572 153.771 122.871 153.663 122.169 153.694C121.467 153.724 120.778 153.893 120.141 154.19L92.8408 166.919" stroke="#121212" stroke-width="0.553432" stroke-linecap="round" stroke-linejoin="round"/>
<path d="M127.418 186.942L134.004 183.87C134.64 183.574 135.213 183.155 135.687 182.637C136.162 182.12 136.53 181.514 136.77 180.853C137.01 180.193 137.117 179.492 137.086 178.791C137.055 178.089 136.886 177.4 136.588 176.764" stroke="#121212" stroke-width="0.553432" stroke-linecap="round" stroke-linejoin="round"/>
<path d="M119.977 201.924C120.334 202.13 120.736 202.248 121.148 202.266C121.561 202.284 121.971 202.202 122.345 202.028C122.72 201.854 123.046 201.592 123.298 201.264C123.549 200.937 123.718 200.554 123.79 200.147L126.003 187.623" stroke="#121212" stroke-width="0.553432" stroke-linecap="round" stroke-linejoin="round"/>
<path d="M87.0628 169.63C86.4258 169.927 85.8536 170.347 85.3788 170.865C84.9041 171.383 84.5362 171.99 84.2961 172.65C84.0561 173.311 83.9486 174.012 83.9799 174.714C84.0112 175.417 84.1806 176.106 84.4784 176.742L93.7868 196.721C94.0836 197.358 94.5031 197.93 95.0213 198.405C95.5395 198.88 96.1461 199.248 96.8067 199.488C97.4672 199.728 98.1685 199.836 98.8706 199.804C99.5726 199.773 100.262 199.604 100.898 199.306L108.934 195.559L118.021 200.811" stroke="#121212" stroke-width="0.553432" stroke-linecap="round" stroke-linejoin="round"/>
<path d="M97.3053 175.055L95.7004 175.808C95.1332 176.098 94.7008 176.598 94.494 177.201C94.2873 177.803 94.3223 178.463 94.5917 179.041C94.8612 179.618 95.3441 180.069 95.9389 180.298C96.5337 180.527 97.1941 180.516 97.7812 180.268L117.084 171.264" stroke="#121212" stroke-width="0.553432" stroke-linecap="round" stroke-linejoin="round"/>
<path d="M118.143 170.793L121.463 169.254C121.768 169.126 122.044 168.937 122.274 168.699C122.505 168.461 122.685 168.179 122.804 167.87C122.923 167.561 122.978 167.231 122.967 166.9C122.955 166.569 122.877 166.244 122.737 165.944C122.597 165.644 122.398 165.375 122.152 165.154C121.906 164.933 121.617 164.763 121.304 164.656C120.991 164.548 120.659 164.505 120.329 164.529C119.999 164.553 119.677 164.643 119.382 164.794L98.3525 174.606" stroke="#121212" stroke-width="0.553432" stroke-linecap="round" stroke-linejoin="round"/>
<path d="M115.958 182.797L117.314 182.166" stroke="#121212" stroke-width="0.553432" stroke-linecap="round" stroke-linejoin="round"/>
<path d="M99.905 184.827C99.3378 185.118 98.9054 185.617 98.6986 186.22C98.4919 186.823 98.5269 187.483 98.7963 188.06C99.0658 188.638 99.5487 189.088 100.143 189.317C100.738 189.546 101.399 189.536 101.986 189.288L114.914 183.278" stroke="#121212" stroke-width="0.553432" stroke-linecap="round" stroke-linejoin="round"/>
<path d="M118.27 181.407C118.601 180.969 118.776 180.432 118.766 179.882C118.756 179.333 118.562 178.803 118.216 178.376C117.869 177.95 117.389 177.652 116.853 177.53C116.318 177.409 115.756 177.47 115.26 177.705L101.147 184.274" stroke="#121212" stroke-width="0.553432" stroke-linecap="round" stroke-linejoin="round"/>
<path d="M113.295 44.7303L110.002 46.2634" stroke="#121212" stroke-width="0.553432" stroke-linecap="round" stroke-linejoin="round"/>
<path d="M157.634 52.8603L148.862 34.0435C148.566 33.4064 148.146 32.8341 147.628 32.3592C147.11 31.8843 146.504 31.516 145.843 31.2755C145.183 31.035 144.482 30.9269 143.779 30.9574C143.077 30.988 142.388 31.1565 141.751 31.4534L114.451 44.1824" stroke="#121212" stroke-width="0.553432" stroke-linecap="round" stroke-linejoin="round"/>
<path d="M149.028 64.2058L155.614 61.1342C156.251 60.8379 156.823 60.419 157.298 59.9013C157.772 59.3836 158.14 58.7774 158.38 58.1173C158.62 57.4572 158.728 56.7563 158.697 56.0546C158.665 55.3529 158.496 54.6642 158.198 54.0281" stroke="#121212" stroke-width="0.553432" stroke-linecap="round" stroke-linejoin="round"/>
<path d="M141.585 79.1876C141.943 79.3941 142.345 79.5114 142.757 79.5295C143.169 79.5476 143.58 79.466 143.954 79.2917C144.328 79.1174 144.655 78.8555 144.906 78.5281C145.158 78.2007 145.327 77.8176 145.398 77.4111L147.612 64.8868" stroke="#121212" stroke-width="0.553432" stroke-linecap="round" stroke-linejoin="round"/>
<path d="M108.673 46.8943C108.036 47.1911 107.464 47.6106 106.989 48.1288C106.514 48.647 106.147 49.2537 105.906 49.9142C105.666 50.5747 105.559 51.2761 105.59 51.9782C105.622 52.6803 105.791 53.3694 106.089 54.0059L115.397 73.985C115.694 74.622 116.113 75.1943 116.632 75.669C117.15 76.1438 117.757 76.5117 118.417 76.7518C119.078 76.9918 119.779 77.0993 120.481 77.068C121.183 77.0367 121.872 76.8673 122.509 76.5695L130.544 72.8228L139.631 78.0749" stroke="#121212" stroke-width="0.553432" stroke-linecap="round" stroke-linejoin="round"/>
<path d="M118.918 52.3187L117.313 53.0714C116.746 53.3621 116.313 53.8614 116.106 54.4643C115.9 55.0672 115.935 55.7267 116.204 56.3044C116.473 56.882 116.956 57.3326 117.551 57.5616C118.146 57.7905 118.806 57.78 119.394 57.5321L138.697 48.5277" stroke="#121212" stroke-width="0.553432" stroke-linecap="round" stroke-linejoin="round"/>
<path d="M139.753 48.0563L143.073 46.5177C143.379 46.389 143.654 46.2 143.885 45.9622C144.115 45.7244 144.295 45.4425 144.414 45.1335C144.533 44.8245 144.588 44.4947 144.577 44.1638C144.566 43.8329 144.488 43.5077 144.348 43.2076C144.208 42.9076 144.009 42.6388 143.762 42.4174C143.516 42.1961 143.228 42.0266 142.915 41.9192C142.601 41.8118 142.27 41.7686 141.94 41.7923C141.609 41.816 141.287 41.906 140.993 42.057L119.963 51.8695" stroke="#121212" stroke-width="0.553432" stroke-linecap="round" stroke-linejoin="round"/>
<path d="M137.569 60.0605L138.925 59.4296" stroke="#121212" stroke-width="0.553432" stroke-linecap="round" stroke-linejoin="round"/>
<path d="M121.515 62.0908C120.948 62.3814 120.516 62.8807 120.309 63.4836C120.102 64.0865 120.137 64.7461 120.407 65.3237C120.676 65.9013 121.159 66.352 121.754 66.5809C122.349 66.8099 123.009 66.7993 123.596 66.5514L136.524 60.5411" stroke="#121212" stroke-width="0.553432" stroke-linecap="round" stroke-linejoin="round"/>
<path d="M139.88 58.6708C140.212 58.2322 140.386 57.6953 140.376 57.1459C140.366 56.5964 140.173 56.0661 139.826 55.6398C139.479 55.2134 139 54.9156 138.464 54.7938C137.928 54.6721 137.367 54.7335 136.87 54.9683L122.758 61.5376" stroke="#121212" stroke-width="0.553432" stroke-linecap="round" stroke-linejoin="round"/>
<path d="M250.754 11.0092L248.421 8.22525" stroke="#121212" stroke-width="0.553432" stroke-linecap="round" stroke-linejoin="round"/>
<path d="M254.4 55.948L270.305 42.6049C270.844 42.1533 271.288 41.6 271.612 40.9767C271.937 40.3534 272.136 39.6722 272.197 38.9721C272.259 38.2719 272.181 37.5666 271.97 36.8962C271.759 36.2259 271.418 35.6038 270.966 35.0653L251.606 11.989" stroke="#121212" stroke-width="0.553432" stroke-linecap="round" stroke-linejoin="round"/>
<path d="M241.255 50.5514L245.927 56.1179C246.378 56.6563 246.93 57.1006 247.553 57.4251C248.176 57.7496 248.857 57.9481 249.557 58.0092C250.256 58.0702 250.961 57.9927 251.631 57.7809C252.301 57.5692 252.922 57.2274 253.459 56.7752" stroke="#121212" stroke-width="0.553432" stroke-linecap="round" stroke-linejoin="round"/>
<path d="M224.835 47.2115C224.729 47.6102 224.719 48.0287 224.809 48.4318C224.898 48.8348 225.083 49.2103 225.348 49.5266C225.613 49.8429 225.951 50.0906 226.332 50.2487C226.713 50.4068 227.127 50.4707 227.538 50.4349L240.208 49.3318" stroke="#121212" stroke-width="0.553432" stroke-linecap="round" stroke-linejoin="round"/>
<path d="M247.565 7.08919C247.113 6.55067 246.56 6.10648 245.937 5.78201C245.313 5.45754 244.632 5.25917 243.932 5.19825C243.232 5.13734 242.527 5.21506 241.856 5.42698C241.186 5.63891 240.565 5.98087 240.027 6.43331L223.139 20.5957C222.6 21.0473 222.156 21.6006 221.832 22.224C221.507 22.8474 221.309 23.5287 221.248 24.2288C221.187 24.929 221.265 25.6343 221.477 26.3044C221.688 26.9744 222.03 27.5962 222.483 28.1339L228.182 34.9263L225.461 45.0633" stroke="#121212" stroke-width="0.553432" stroke-linecap="round" stroke-linejoin="round"/>
<path d="M244.948 18.4029L243.805 17.0475C243.378 16.5748 242.783 16.2863 242.148 16.2426C241.512 16.1989 240.884 16.4035 240.396 16.8133C239.907 17.223 239.597 17.8061 239.53 18.4399C239.463 19.0737 239.644 19.7089 240.035 20.2119L253.729 36.5275" stroke="#121212" stroke-width="0.553432" stroke-linecap="round" stroke-linejoin="round"/>
<path d="M254.477 37.406L256.823 40.2153C257.026 40.4766 257.28 40.6943 257.569 40.8552C257.859 41.0162 258.178 41.1171 258.507 41.152C258.836 41.1869 259.169 41.1551 259.486 41.0584C259.802 40.9617 260.096 40.8022 260.35 40.5893C260.603 40.3765 260.812 40.1146 260.962 39.8195C261.112 39.5244 261.201 39.2021 261.223 38.8717C261.246 38.5414 261.202 38.2099 261.094 37.897C260.985 37.5842 260.815 37.2964 260.593 37.0508L245.672 19.2765" stroke="#121212" stroke-width="0.553432" stroke-linecap="round" stroke-linejoin="round"/>
<path d="M242.282 38.4127L243.242 39.5591" stroke="#121212" stroke-width="0.553432" stroke-linecap="round" stroke-linejoin="round"/>
<path d="M236.21 23.4525C235.783 22.9798 235.189 22.6913 234.553 22.6476C233.917 22.604 233.289 22.8085 232.801 23.2183C232.313 23.628 232.002 24.2111 231.935 24.8449C231.868 25.4787 232.049 26.1139 232.44 26.617L241.592 37.5491" stroke="#121212" stroke-width="0.553432" stroke-linecap="round" stroke-linejoin="round"/>
<path d="M244.253 40.2604C244.762 40.4668 245.326 40.4965 245.854 40.3447C246.382 40.193 246.845 39.8685 247.167 39.4233C247.489 38.9781 247.652 38.4377 247.631 37.8886C247.61 37.3395 247.405 36.8133 247.05 36.3941L237.052 24.4626" stroke="#121212" stroke-width="0.553432" stroke-linecap="round" stroke-linejoin="round"/>
<path d="M281.36 105.101L281.022 106.678" stroke="#121212" stroke-width="0.553432" stroke-linecap="round" stroke-linejoin="round"/>
<rect x="1" y="1" width="380" height="189" rx="94.5" stroke="black" stroke-width="2"/>
</g>
</svg>
