<svg width="382" height="239" viewBox="0 0 382 239" fill="none" xmlns="http://www.w3.org/2000/svg">
<path d="M286.5 25H95.5C43.3091 25 1 67.3091 1 119.5C1 171.691 43.3091 214 95.5 214H286.5C338.691 214 381 171.691 381 119.5C381 67.3091 338.691 25 286.5 25Z" stroke="black" stroke-width="2"/>
<path d="M256.17 3.26438V229.098C256.17 229.698 255.931 230.274 255.507 230.699C255.082 231.124 254.506 231.362 253.905 231.362H118.367C117.766 231.362 117.19 231.124 116.766 230.699C116.341 230.274 116.103 229.698 116.103 229.098V3.26438C116.105 2.66458 116.344 2.09002 116.768 1.66589C117.193 1.24176 117.767 1.00241 118.367 1H155.724L156.952 5.16207H215.329L216.558 1H253.915C254.513 1.00482 255.085 1.24523 255.507 1.6691C255.929 2.09297 256.167 2.66615 256.17 3.26438Z" fill="#FAE659"/>
<mask id="mask0_378_232" style="mask-type:luminance" maskUnits="userSpaceOnUse" x="116" y="1" width="141" height="231">
<path d="M256.17 3.26475V229.098C256.17 229.699 255.932 230.275 255.507 230.699C255.082 231.124 254.506 231.362 253.906 231.362H118.367C117.767 231.362 117.191 231.124 116.766 230.699C116.342 230.275 116.103 229.699 116.103 229.098V3.26475C116.105 2.66494 116.345 2.09039 116.769 1.66626C117.193 1.24212 117.768 1.00278 118.367 1.00037H155.724L156.953 5.16243H215.33L216.558 1.00037H253.915C254.513 1.00519 255.085 1.24559 255.508 1.66947C255.93 2.09334 256.168 2.66652 256.17 3.26475Z" fill="white"/>
</mask>
<g mask="url(#mask0_378_232)">
<path opacity="0.5" d="M256.179 22.8364V229.106C256.179 229.707 255.94 230.283 255.515 230.707C255.091 231.132 254.515 231.371 253.914 231.371H118.376C117.775 231.371 117.199 231.132 116.775 230.707C116.35 230.283 116.111 229.707 116.111 229.106V22.8364H256.179Z" fill="#FAE659"/>
<g opacity="0.2">
<path d="M232.404 43.8027H115.897V94.4809H232.404C233.134 94.4809 233.833 94.1912 234.349 93.6754C234.865 93.1596 235.154 92.4601 235.154 91.7307V46.5255C235.147 45.8009 234.854 45.1084 234.339 44.5985C233.824 44.0887 233.129 43.8027 232.404 43.8027Z" fill="#121212"/>
<path d="M220.349 97.8454H115.897V151.09H220.349C220.725 151.092 221.098 151.018 221.445 150.875C221.793 150.732 222.109 150.521 222.374 150.255C222.64 149.99 222.851 149.674 222.994 149.326C223.137 148.979 223.211 148.606 223.209 148.23V100.706C223.211 100.33 223.137 99.9572 222.994 99.6096C222.851 99.262 222.64 98.9462 222.374 98.6804C222.109 98.4146 221.793 98.2039 221.445 98.0606C221.098 97.9173 220.725 97.8441 220.349 97.8454Z" fill="#121212"/>
<path d="M232.404 150.045H115.897V200.733H232.404C233.134 200.733 233.833 200.443 234.349 199.927C234.865 199.411 235.154 198.712 235.154 197.982V152.768C235.147 152.044 234.854 151.351 234.339 150.841C233.824 150.331 233.129 150.045 232.404 150.045Z" fill="#121212"/>
<path d="M235.131 205.894V231.343H118.377C117.776 231.343 117.2 231.105 116.776 230.68C116.351 230.255 116.112 229.679 116.112 229.079V203.171H232.409C233.129 203.178 233.817 203.468 234.326 203.977C234.835 204.486 235.124 205.174 235.131 205.894Z" fill="#121212"/>
<path d="M246.062 46.8828V59.9099C246.062 60.4493 245.919 60.979 245.649 61.4457C245.378 61.9124 244.99 62.2996 244.522 62.5685V231.343H241.442V62.5594C240.974 62.2905 240.586 61.9032 240.316 61.4365C240.045 60.9698 239.903 60.4401 239.902 59.9008V46.8828C239.902 46.0659 240.226 45.2824 240.804 44.7048C241.382 44.1271 242.165 43.8026 242.982 43.8026C243.799 43.8026 244.582 44.1271 245.16 44.7048C245.738 45.2824 246.062 46.0659 246.062 46.8828Z" fill="#121212"/>
</g>
</g>
<path d="M256.17 3.26438V229.098C256.17 229.698 255.931 230.274 255.507 230.699C255.082 231.124 254.506 231.362 253.905 231.362H118.367C117.766 231.362 117.19 231.124 116.766 230.699C116.341 230.274 116.103 229.698 116.103 229.098V3.26438C116.105 2.66458 116.344 2.09002 116.768 1.66589C117.193 1.24176 117.767 1.00241 118.367 1H155.724L156.952 5.16207H215.329L216.558 1H253.915C254.513 1.00482 255.085 1.24523 255.507 1.6691C255.929 2.09297 256.167 2.66615 256.17 3.26438Z" stroke="#121212" stroke-width="0.916744" stroke-linecap="round" stroke-linejoin="round"/>
<path d="M116.097 23.0386H256.173" stroke="#121212" stroke-width="0.916744" stroke-linecap="round" stroke-linejoin="round"/>
<path d="M217.733 37.3864H102.784C101.281 37.3864 100.062 38.6054 100.062 40.1091V82.8849C100.062 84.3886 101.281 85.6076 102.784 85.6076H217.733C219.237 85.6076 220.456 84.3886 220.456 82.8849V40.1091C220.456 38.6054 219.237 37.3864 217.733 37.3864Z" fill="#FAE659"/>
<mask id="mask1_378_232" style="mask-type:luminance" maskUnits="userSpaceOnUse" x="100" y="37" width="121" height="49">
<path d="M217.729 37.3864H102.78C101.276 37.3864 100.057 38.6054 100.057 40.1091V82.8849C100.057 84.3886 101.276 85.6076 102.78 85.6076H217.729C219.232 85.6076 220.451 84.3886 220.451 82.8849V40.1091C220.451 38.6054 219.232 37.3864 217.729 37.3864Z" fill="white"/>
</mask>
<g mask="url(#mask1_378_232)">
<path d="M145.061 43.0052H105.907V79.9871H145.061V43.0052Z" fill="#FAE659" stroke="#121212" stroke-width="0.916744" stroke-linecap="round" stroke-linejoin="round"/>
<path d="M125.171 86.5848H113.383C113.074 86.5848 112.778 86.462 112.559 86.2435C112.341 86.025 112.218 85.7287 112.218 85.4197V77.3063C112.218 77.3063 118.838 77.0203 119.939 75.6116C121.041 74.2029 119.823 72.0103 119.823 72.0103C119.42 71.5019 119.325 67.9748 119.325 67.9748L118.933 67.8795C118.53 67.7736 118.022 64.8502 118.022 63.7487C118.018 63.4379 118.101 63.1322 118.262 62.8664C118.423 62.6006 118.656 62.3851 118.933 62.2446C118.933 62.2446 117.874 55.0951 125.171 55.0951C132.469 55.0951 131.41 62.2234 131.41 62.2234C131.687 62.364 131.919 62.5794 132.08 62.8452C132.241 63.1111 132.325 63.4167 132.321 63.7275C132.321 64.7867 131.802 67.7524 131.41 67.8583L131.007 67.9536C131.007 67.9536 130.912 71.4807 130.509 71.9892C130.509 71.9892 129.281 74.1817 130.393 75.5904C131.505 76.9991 138.114 77.2851 138.114 77.2851V85.4197C138.114 85.7287 137.992 86.025 137.773 86.2435C137.555 86.462 137.258 86.5848 136.949 86.5848H125.171Z" fill="#121212"/>
<path d="M188.59 46.2597H153.553C153.122 46.2573 152.709 46.0843 152.405 45.7786C152.101 45.4728 151.93 45.0591 151.93 44.6279C151.93 44.4148 151.972 44.2038 152.054 44.0069C152.135 43.8101 152.255 43.6312 152.405 43.4805C152.556 43.3298 152.735 43.2103 152.932 43.1288C153.129 43.0472 153.34 43.0052 153.553 43.0052H188.59C188.803 43.0052 189.014 43.0472 189.211 43.1288C189.408 43.2103 189.587 43.3298 189.738 43.4805C189.888 43.6312 190.008 43.8101 190.089 44.0069C190.171 44.2038 190.213 44.4148 190.213 44.6279C190.213 45.0591 190.042 45.4728 189.738 45.7786C189.434 46.0843 189.021 46.2573 188.59 46.2597Z" fill="#121212"/>
<path d="M167.973 53.438H153.553C153.122 53.4356 152.709 53.2626 152.405 52.9568C152.101 52.6511 151.93 52.2374 151.93 51.8062C151.93 51.3758 152.101 50.9631 152.405 50.6588C152.71 50.3545 153.122 50.1835 153.553 50.1835H167.973C168.403 50.1835 168.816 50.3545 169.12 50.6588C169.425 50.9631 169.596 51.3758 169.596 51.8062C169.596 52.2374 169.425 52.6511 169.121 52.9568C168.817 53.2626 168.404 53.4356 167.973 53.438Z" fill="#121212"/>
<path d="M213.248 79.8405C213.248 79.9874 213.205 80.1309 213.123 80.253C213.042 80.3751 212.926 80.4703 212.79 80.5265C212.654 80.5827 212.505 80.5974 212.361 80.5688C212.217 80.5401 212.085 80.4694 211.981 80.3656C211.877 80.2617 211.806 80.1294 211.777 79.9853C211.749 79.8413 211.763 79.692 211.82 79.5563C211.876 79.4206 211.971 79.3047 212.093 79.2231C212.215 79.1415 212.359 79.0979 212.506 79.0979C212.702 79.1003 212.889 79.1793 213.028 79.318C213.167 79.4568 213.246 79.6443 213.248 79.8405Z" fill="#FAE659" stroke="#121212" stroke-width="0.916744" stroke-linecap="round" stroke-linejoin="round"/>
<path d="M205.655 79.8407C205.655 79.9876 205.611 80.1312 205.529 80.2533C205.448 80.3754 205.332 80.4706 205.196 80.5268C205.06 80.583 204.911 80.5977 204.767 80.569C204.623 80.5404 204.491 80.4697 204.387 80.3658C204.283 80.262 204.212 80.1296 204.184 79.9856C204.155 79.8415 204.17 79.6922 204.226 79.5565C204.282 79.4209 204.377 79.3049 204.499 79.2233C204.622 79.1417 204.765 79.0981 204.912 79.0981C205.108 79.1005 205.296 79.1795 205.434 79.3183C205.573 79.457 205.652 79.6445 205.655 79.8407Z" fill="#FAE659" stroke="#121212" stroke-width="0.916744" stroke-linecap="round" stroke-linejoin="round"/>
<path d="M205.106 78.0806H212.504" stroke="#121212" stroke-width="0.916744" stroke-linecap="round" stroke-linejoin="round"/>
<path opacity="0.2" d="M214.448 77.0631H100.031V82.8845C100.031 83.6139 100.321 84.3135 100.837 84.8292C101.353 85.345 102.052 85.6348 102.781 85.6348H217.07V79.7125C217.074 79.3659 217.009 79.022 216.879 78.7007C216.748 78.3794 216.556 78.0871 216.312 77.8407C216.068 77.5944 215.778 77.3988 215.458 77.2653C215.138 77.1318 214.795 77.0631 214.448 77.0631Z" fill="#121212"/>
</g>
<path d="M217.733 37.3864H102.784C101.281 37.3864 100.062 38.6054 100.062 40.1091V82.8849C100.062 84.3886 101.281 85.6076 102.784 85.6076H217.733C219.237 85.6076 220.456 84.3886 220.456 82.8849V40.1091C220.456 38.6054 219.237 37.3864 217.733 37.3864Z" stroke="#121212" stroke-width="0.916744" stroke-linecap="round" stroke-linejoin="round"/>
<path d="M220.455 141.191V183.976C220.455 184.705 220.165 185.405 219.649 185.92C219.134 186.436 218.434 186.726 217.705 186.726H102.783C102.054 186.726 101.354 186.436 100.839 185.92C100.323 185.405 100.033 184.705 100.033 183.976V141.191C100.033 140.461 100.323 139.762 100.839 139.246C101.354 138.73 102.054 138.44 102.783 138.44H217.732C218.457 138.448 219.149 138.741 219.659 139.256C220.169 139.771 220.455 140.466 220.455 141.191Z" fill="#FAE659"/>
<mask id="mask2_378_232" style="mask-type:luminance" maskUnits="userSpaceOnUse" x="100" y="138" width="121" height="49">
<path d="M220.452 141.19V183.975C220.452 184.704 220.162 185.404 219.646 185.919C219.131 186.435 218.431 186.725 217.702 186.725H102.78C102.051 186.725 101.352 186.435 100.836 185.919C100.32 185.404 100.03 184.704 100.03 183.975V141.19C100.03 140.46 100.32 139.761 100.836 139.245C101.352 138.729 102.051 138.439 102.78 138.439H217.729C218.454 138.447 219.146 138.74 219.656 139.255C220.166 139.77 220.452 140.465 220.452 141.19Z" fill="white"/>
</mask>
<g mask="url(#mask2_378_232)">
<path d="M145.058 144.096H105.904V181.078H145.058V144.096Z" fill="#FAE659" stroke="#121212" stroke-width="0.916744" stroke-linecap="round" stroke-linejoin="round"/>
<path d="M125.407 181.165H115.852C115.601 181.165 115.361 181.069 115.184 180.899C115.007 180.729 114.907 180.499 114.907 180.258V173.949C114.907 173.949 120.273 173.727 121.166 172.631C122.058 171.536 121.071 169.831 121.071 169.831C120.745 169.435 120.668 166.692 120.668 166.692L120.35 166.618C120.024 166.536 119.612 164.262 119.612 163.406C119.609 163.164 119.676 162.926 119.807 162.72C119.937 162.513 120.125 162.345 120.35 162.236C120.35 162.236 119.492 156.676 125.407 156.676C131.322 156.676 130.463 162.22 130.463 162.22C130.688 162.329 130.876 162.496 131.007 162.703C131.137 162.91 131.205 163.148 131.201 163.389C131.201 164.213 130.781 166.519 130.463 166.602L130.137 166.676C130.137 166.676 130.06 169.419 129.733 169.814C129.733 169.814 128.737 171.519 129.639 172.615C130.54 173.71 135.897 173.933 135.897 173.933V180.258C135.897 180.499 135.798 180.729 135.621 180.899C135.444 181.069 135.203 181.165 134.953 181.165H125.407Z" fill="#121212"/>
<path d="M188.589 147.341H153.552C153.121 147.341 152.709 147.17 152.404 146.866C152.1 146.562 151.929 146.149 151.929 145.719C151.929 145.287 152.1 144.874 152.404 144.568C152.708 144.262 153.121 144.089 153.552 144.087H188.589C189.02 144.089 189.433 144.262 189.737 144.568C190.041 144.874 190.212 145.287 190.212 145.719C190.212 146.149 190.041 146.562 189.737 146.866C189.432 147.17 189.02 147.341 188.589 147.341Z" fill="#121212"/>
<path d="M167.981 151.274H153.552C152.656 151.274 151.929 152.001 151.929 152.897V152.906C151.929 153.802 152.656 154.529 153.552 154.529H167.981C168.877 154.529 169.604 153.802 169.604 152.906V152.897C169.604 152.001 168.877 151.274 167.981 151.274Z" fill="#121212"/>
<path opacity="0.2" d="M217.069 138.475H102.78C102.051 138.475 101.352 138.764 100.836 139.28C100.32 139.796 100.03 140.495 100.03 141.225V157.451H214.447C214.792 157.451 215.133 157.384 215.451 157.252C215.769 157.12 216.058 156.927 216.301 156.683C216.545 156.44 216.738 156.151 216.87 155.833C217.001 155.515 217.069 155.174 217.069 154.83V138.475Z" fill="#121212"/>
</g>
<path d="M220.455 141.191V183.976C220.455 184.705 220.165 185.405 219.649 185.92C219.134 186.436 218.434 186.726 217.705 186.726H102.783C102.054 186.726 101.354 186.436 100.839 185.92C100.323 185.405 100.033 184.705 100.033 183.976V141.191C100.033 140.461 100.323 139.762 100.839 139.246C101.354 138.73 102.054 138.44 102.783 138.44H217.732C218.457 138.448 219.149 138.741 219.659 139.256C220.169 139.771 220.455 140.466 220.455 141.191Z" stroke="#121212" stroke-width="0.916744" stroke-linecap="round" stroke-linejoin="round"/>
<path d="M217.733 189.018H102.784C101.281 189.018 100.062 190.237 100.062 191.74V234.516C100.062 236.02 101.281 237.239 102.784 237.239H217.733C219.237 237.239 220.456 236.02 220.456 234.516V191.74C220.456 190.237 219.237 189.018 217.733 189.018Z" fill="#FAE659" stroke="#121212" stroke-width="0.916744" stroke-linecap="round" stroke-linejoin="round"/>
<path d="M145.059 194.637H105.905V231.619H145.059V194.637Z" fill="#FAE659" stroke="#121212" stroke-width="0.916744" stroke-linecap="round" stroke-linejoin="round"/>
<path d="M125.402 231.016H115.051C114.78 231.016 114.519 230.907 114.327 230.713C114.136 230.518 114.028 230.255 114.028 229.98V222.77C114.028 222.77 119.841 222.515 120.808 221.263C121.775 220.011 120.705 218.063 120.705 218.063C120.352 217.611 120.268 214.476 120.268 214.476L119.924 214.391C119.571 214.297 119.124 211.699 119.124 210.72C119.121 210.444 119.194 210.172 119.335 209.936C119.477 209.7 119.681 209.508 119.924 209.383C119.924 209.383 118.994 203.029 125.402 203.029C131.81 203.029 130.88 209.365 130.88 209.365C131.123 209.489 131.327 209.681 131.469 209.917C131.61 210.153 131.683 210.425 131.68 210.701C131.68 211.643 131.224 214.278 130.88 214.373L130.527 214.457C130.527 214.457 130.443 217.592 130.089 218.044C130.089 218.044 129.011 219.993 129.987 221.245C130.964 222.497 136.767 222.751 136.767 222.751V229.98C136.767 230.255 136.659 230.518 136.467 230.713C136.276 230.907 136.015 231.016 135.744 231.016H125.402Z" fill="#121212"/>
<path d="M188.594 197.891H153.557C153.126 197.888 152.713 197.715 152.409 197.41C152.105 197.104 151.934 196.69 151.934 196.259C151.934 195.829 152.105 195.416 152.409 195.112C152.714 194.807 153.126 194.636 153.557 194.636H188.594C189.024 194.636 189.437 194.807 189.741 195.112C190.046 195.416 190.217 195.829 190.217 196.259C190.217 196.69 190.046 197.104 189.742 197.41C189.438 197.715 189.025 197.888 188.594 197.891Z" fill="#121212"/>
<path d="M167.977 205.069H153.557C153.126 205.067 152.713 204.894 152.409 204.588C152.105 204.282 151.934 203.868 151.934 203.437C151.934 203.007 152.105 202.594 152.409 202.29C152.714 201.986 153.126 201.815 153.557 201.815H167.977C168.407 201.815 168.82 201.986 169.124 202.29C169.429 202.594 169.599 203.007 169.599 203.437C169.599 203.868 169.429 204.282 169.125 204.588C168.821 204.894 168.408 205.067 167.977 205.069Z" fill="#121212"/>
<path d="M210.396 79.246H62.5274C61.0237 79.246 59.8047 80.465 59.8047 81.9687V137.927C59.8047 139.431 61.0237 140.65 62.5274 140.65H210.396C211.9 140.65 213.119 139.431 213.119 137.927V81.9687C213.119 80.465 211.9 79.246 210.396 79.246Z" fill="#F71C06" stroke="#F71C06" stroke-width="0.916744" stroke-linecap="round" stroke-linejoin="round"/>
<path d="M117.095 86.3964H67.2432V133.49H117.095V86.3964Z" fill="#F71C06" stroke="#FAE659" stroke-width="0.916744" stroke-linecap="round" stroke-linejoin="round"/>
<mask id="mask3_378_232" style="mask-type:alpha" maskUnits="userSpaceOnUse" x="66" y="85" width="52" height="49">
<path d="M117.095 86.3965H67.2437V133.49H117.095V86.3965Z" fill="#F71C06" stroke="#F71C06" stroke-width="0.916744" stroke-linecap="round" stroke-linejoin="round"/>
</mask>
<g mask="url(#mask3_378_232)">
<path d="M91.3006 141.808H75.3757C74.9582 141.808 74.5579 141.645 74.2628 141.353C73.9676 141.062 73.8018 140.667 73.8018 140.255V129.439C73.8018 129.439 82.7443 129.057 84.2324 127.179C85.7204 125.301 84.075 122.378 84.075 122.378C83.5313 121.701 83.4025 116.999 83.4025 116.999L82.8731 116.872C82.3294 116.73 81.6426 112.833 81.6426 111.365C81.6374 110.95 81.7499 110.543 81.9674 110.188C82.1849 109.834 82.4986 109.547 82.8731 109.359C82.8731 109.359 81.4423 99.8281 91.3006 99.8281C101.159 99.8281 99.7281 109.331 99.7281 109.331C100.103 109.519 100.416 109.806 100.634 110.16C100.851 110.515 100.964 110.922 100.959 111.336C100.959 112.748 100.258 116.702 99.7281 116.843L99.1844 116.97C99.1844 116.97 99.0557 121.672 98.512 122.35C98.512 122.35 96.8522 125.273 98.3546 127.151C99.8569 129.029 108.785 129.41 108.785 129.41V140.255C108.785 140.667 108.619 141.062 108.324 141.353C108.029 141.645 107.629 141.808 107.211 141.808H91.3006Z" fill="#FAE659"/>
</g>
<path d="M172.922 86.3956H127.572C126.63 86.3956 125.867 87.1591 125.867 88.1008V88.8342C125.867 89.7759 126.63 90.5394 127.572 90.5394H172.922C173.864 90.5394 174.628 89.7759 174.628 88.8342V88.1008C174.628 87.1591 173.864 86.3956 172.922 86.3956Z" fill="#FAE659"/>
<path d="M127.534 95.5357H146.62C146.844 95.5357 147.066 95.5798 147.272 95.6655C147.479 95.7512 147.667 95.8768 147.826 96.0351C147.984 96.1934 148.11 96.3814 148.195 96.5883C148.281 96.7952 148.325 97.0169 148.325 97.2408V97.9651C148.325 98.4197 148.144 98.8558 147.823 99.1773C147.501 99.4988 147.065 99.6794 146.611 99.6794H127.534C127.308 99.6794 127.086 99.6351 126.878 99.5489C126.67 99.4628 126.481 99.3365 126.321 99.1773C126.162 99.0181 126.036 98.8291 125.95 98.6211C125.864 98.4131 125.819 98.1902 125.819 97.9651V97.2225C125.819 96.7703 125.999 96.3365 126.319 96.0168C126.639 95.697 127.072 95.5173 127.524 95.5173L127.534 95.5357Z" fill="#FAE659"/>
<path d="M228.308 238.1C227.899 238.098 227.507 237.933 227.219 237.643C226.93 237.353 226.768 236.96 226.768 236.551V42.8496C226.768 42.4411 226.93 42.0494 227.219 41.7605C227.508 41.4717 227.9 41.3094 228.308 41.3094C228.717 41.3094 229.108 41.4717 229.397 41.7605C229.686 42.0494 229.848 42.4411 229.848 42.8496V236.551C229.848 236.96 229.686 237.353 229.398 237.643C229.109 237.933 228.717 238.098 228.308 238.1Z" fill="#121212"/>
<path d="M228.309 56.5644C227.904 56.5657 227.503 56.4868 227.129 56.3324C226.754 56.1781 226.414 55.9512 226.128 55.6649C225.842 55.3787 225.615 55.0386 225.461 54.6643C225.306 54.2901 225.227 53.889 225.229 53.4841V40.4662C225.229 39.6493 225.553 38.8658 226.131 38.2881C226.708 37.7105 227.492 37.3859 228.309 37.3859C229.126 37.3859 229.909 37.7105 230.487 38.2881C231.064 38.8658 231.389 39.6493 231.389 40.4662V53.4933C231.389 53.8974 231.309 54.2975 231.154 54.6707C230.999 55.0439 230.772 55.3829 230.486 55.6682C230.2 55.9535 229.86 56.1795 229.487 56.3333C229.113 56.4871 228.713 56.5656 228.309 56.5644Z" fill="#FAE659" stroke="#121212" stroke-width="0.916744" stroke-linecap="round" stroke-linejoin="round"/>
<path d="M170.705 18.0873V10.0866H173.408C174.033 10.0866 174.546 10.1934 174.947 10.4069C175.348 10.6179 175.645 10.9083 175.838 11.2781C176.031 11.6479 176.127 12.0685 176.127 12.5399C176.127 13.0113 176.031 13.4293 175.838 13.7939C175.645 14.1586 175.35 14.445 174.951 14.6534C174.553 14.8591 174.043 14.962 173.424 14.962H171.236V14.0869H173.392C173.82 14.0869 174.163 14.0244 174.424 13.8994C174.687 13.7744 174.877 13.5973 174.994 13.3681C175.114 13.1363 175.174 12.8603 175.174 12.5399C175.174 12.2196 175.114 11.9396 174.994 11.7C174.874 11.4604 174.683 11.2755 174.42 11.1453C174.157 11.0125 173.809 10.9461 173.377 10.9461H171.674V18.0873H170.705ZM174.471 14.4932L176.44 18.0873H175.314L173.377 14.4932H174.471ZM180.068 18.2123C179.49 18.2123 178.991 18.0847 178.572 17.8294C178.155 17.5716 177.833 17.2122 177.607 16.7512C177.383 16.2876 177.271 15.7485 177.271 15.1339C177.271 14.5193 177.383 13.9776 177.607 13.5088C177.833 13.0374 178.148 12.6702 178.552 12.4071C178.958 12.1415 179.432 12.0086 179.974 12.0086C180.287 12.0086 180.595 12.0607 180.9 12.1649C181.205 12.2691 181.482 12.4384 181.732 12.6728C181.982 12.9046 182.181 13.2119 182.33 13.5947C182.478 13.9776 182.552 14.449 182.552 15.0089V15.3996H177.927V14.6026H181.615C181.615 14.264 181.547 13.9619 181.412 13.6963C181.279 13.4306 181.089 13.221 180.841 13.0673C180.596 12.9137 180.307 12.8368 179.974 12.8368C179.607 12.8368 179.289 12.928 179.021 13.1103C178.755 13.29 178.551 13.5244 178.407 13.8135C178.264 14.1026 178.193 14.4125 178.193 14.7432V15.2745C178.193 15.7277 178.271 16.1119 178.427 16.427C178.586 16.7395 178.806 16.9778 179.087 17.1419C179.368 17.3034 179.695 17.3841 180.068 17.3841C180.31 17.3841 180.529 17.3502 180.724 17.2825C180.922 17.2122 181.093 17.108 181.236 16.97C181.379 16.8294 181.49 16.6549 181.568 16.4465L182.459 16.6965C182.365 16.9986 182.207 17.2643 181.986 17.4935C181.765 17.7201 181.491 17.8972 181.166 18.0248C180.84 18.1498 180.474 18.2123 180.068 18.2123ZM188.205 13.4306L187.377 13.665C187.325 13.527 187.248 13.3929 187.146 13.2627C187.048 13.1298 186.912 13.0204 186.74 12.9345C186.568 12.8486 186.348 12.8056 186.08 12.8056C185.713 12.8056 185.407 12.8902 185.162 13.0595C184.92 13.2262 184.799 13.4385 184.799 13.6963C184.799 13.9255 184.882 14.1065 185.049 14.2393C185.215 14.3721 185.476 14.4828 185.83 14.5714L186.721 14.7901C187.257 14.9203 187.657 15.1196 187.92 15.3878C188.183 15.6535 188.315 15.996 188.315 16.4153C188.315 16.759 188.216 17.0664 188.018 17.3372C187.822 17.6081 187.549 17.8216 187.197 17.9779C186.846 18.1342 186.437 18.2123 185.971 18.2123C185.359 18.2123 184.852 18.0795 184.451 17.8138C184.05 17.5482 183.796 17.1601 183.689 16.6497L184.564 16.4309C184.648 16.7538 184.805 16.996 185.037 17.1575C185.271 17.319 185.577 17.3997 185.955 17.3997C186.385 17.3997 186.726 17.3086 186.979 17.1263C187.234 16.9414 187.361 16.72 187.361 16.4621C187.361 16.2538 187.288 16.0793 187.143 15.9387C186.997 15.7954 186.773 15.6886 186.471 15.6183L185.471 15.3839C184.921 15.2537 184.517 15.0519 184.26 14.7784C184.004 14.5023 183.877 14.1573 183.877 13.7432C183.877 13.4046 183.972 13.1051 184.162 12.8447C184.355 12.5842 184.616 12.3798 184.947 12.2313C185.28 12.0829 185.658 12.0086 186.08 12.0086C186.674 12.0086 187.14 12.1389 187.479 12.3993C187.82 12.6597 188.062 13.0035 188.205 13.4306ZM193.484 15.6339V12.0868H194.406V18.0873H193.484V17.0716H193.421C193.281 17.3763 193.062 17.6354 192.765 17.849C192.468 18.0599 192.093 18.1654 191.64 18.1654C191.265 18.1654 190.932 18.0834 190.64 17.9193C190.348 17.7526 190.119 17.5026 189.952 17.1692C189.786 16.8333 189.702 16.4101 189.702 15.8996V12.0868H190.624V15.8371C190.624 16.2746 190.747 16.6236 190.992 16.8841C191.239 17.1445 191.554 17.2747 191.937 17.2747C192.166 17.2747 192.399 17.2161 192.636 17.0989C192.876 16.9817 193.076 16.802 193.238 16.5598C193.402 16.3176 193.484 16.009 193.484 15.6339ZM197.016 10.0866V18.0873H196.095V10.0866H197.016ZM201.315 12.0868V12.8681H198.205V12.0868H201.315ZM199.111 10.6492H200.033V16.3684C200.033 16.6288 200.071 16.8242 200.147 16.9544C200.225 17.082 200.324 17.1679 200.444 17.2122C200.566 17.2539 200.695 17.2747 200.83 17.2747C200.932 17.2747 201.015 17.2695 201.08 17.2591C201.145 17.2461 201.197 17.2356 201.237 17.2278L201.424 18.056C201.362 18.0795 201.274 18.1029 201.162 18.1263C201.05 18.1524 200.908 18.1654 200.737 18.1654C200.476 18.1654 200.221 18.1094 199.971 17.9974C199.723 17.8854 199.518 17.7149 199.354 17.4857C199.192 17.2565 199.111 16.9674 199.111 16.6184V10.6492Z" fill="#121212"/>
</svg>
