<svg width="382" height="191" viewBox="0 0 382 191" fill="none" xmlns="http://www.w3.org/2000/svg">
<mask id="mask0_378_76" style="mask-type:alpha" maskUnits="userSpaceOnUse" x="0" y="0" width="382" height="191">
<rect x="1" y="1" width="380" height="189" rx="94.5" fill="#D9D9D9" stroke="black" stroke-width="2"/>
</mask>
<g mask="url(#mask0_378_76)">
<path opacity="0.2" d="M190.36 148.792C190.36 148.792 186.694 167.396 164.211 171.613C164.211 171.613 158.339 176.296 156.385 179.068C154.431 181.84 144.024 186.551 133.422 201.252C122.82 215.953 107.036 169.269 107.036 169.269L141.923 123.96L190.36 148.792Z" fill="black" fill-opacity="0.7"/>
<path d="M210.35 61.4397C210.35 61.4397 222.474 55.5109 225.141 56.5331C227.808 57.5553 230.371 63.6885 220.173 69.5602C209.975 75.4318 213.017 86.3717 213.017 86.3717H220.291C220.291 86.3717 224.656 88.1498 226.353 90.4367C228.051 92.7236 229.263 100.521 230.233 103.164C231.203 105.808 230.708 108.456 228.051 109.316C228.051 109.316 226.353 116.714 226.838 119.995C227.323 123.275 227.081 125.386 223.929 125.786C223.135 125.868 222.334 125.778 221.579 125.52C220.825 125.262 220.135 124.843 219.559 124.292C218.982 123.741 218.532 123.072 218.24 122.33C217.948 121.587 217.82 120.791 217.867 119.995L215.442 128.781L217.139 132.156C219.537 133.085 221.753 134.427 223.686 136.122C227.081 139.031 230.475 139.825 229.505 143.068C228.535 146.31 226.596 149.805 216.412 145.754C206.228 141.703 197.742 125.786 197.742 125.786L191.623 70.2828L210.35 61.4397Z" fill="#FAE659"/>
<path opacity="0.4" d="M223.111 93.3223C217.615 100.815 223.696 109.444 223.696 109.444C223.696 109.444 219.892 111.565 219.783 116.975C219.74 119.224 220.306 122.367 220.981 125.277C219.993 124.81 219.168 124.056 218.613 123.114C218.059 122.172 217.8 121.085 217.872 119.994L215.442 128.781L217.139 132.151C218.925 132.835 220.608 133.761 222.141 134.904C220.634 138.365 220.173 142.644 220.306 147.056C218.982 146.705 217.681 146.27 216.412 145.754C206.228 141.698 197.742 125.785 197.742 125.785L191.623 70.2777L210.35 61.4393C210.35 61.4393 216.973 58.2016 221.509 56.9226C221.157 61.1636 221.984 65.5519 222.583 67.9956C221.81 68.5618 221.005 69.084 220.173 69.5598C209.989 75.4315 213.017 86.3713 213.017 86.3713H220.296C220.296 86.3713 224.442 88.0639 226.22 90.2652C225.004 91.0838 223.95 92.1202 223.111 93.3223Z" fill="#FAE659"/>
<path d="M191.409 139.849C191.409 139.849 178.22 165.708 154.449 171.575C154.449 171.575 153.541 176.691 149.519 178.887C147.37 180.057 138.698 193.051 131.086 204.913L77.2148 191.295C79.8107 188.728 94.4781 173.524 97.4828 170.439C106.278 161.472 115.663 151.421 118.535 146.448C121.102 142.026 124.349 134.353 127.178 127.14C130.801 117.917 133.749 109.445 133.749 109.445L147.802 93.8217L169.896 69.2558L170.846 72.3984L191.409 139.849Z" fill="#FAE659"/>
<path opacity="0.4" d="M169.919 69.2558L191.413 139.849C191.413 139.849 178.225 165.708 154.453 171.575C154.453 171.575 153.545 176.691 149.523 178.887C147.593 179.938 140.409 190.517 133.458 201.233C136.035 192.39 143.494 178.293 143.494 178.293C138.707 172.621 140.105 166.645 142.021 168.347C143.936 170.049 148.753 174.832 149.057 175.131C146.941 172.64 146.452 168.737 146.452 168.737C146.452 168.737 152.385 172.683 152.865 166.359C153.345 160.036 149.309 144.584 149.309 144.584L138.712 103.953L169.919 69.2558Z" fill="#FAE659"/>
<path d="M191.623 70.2828L210.35 61.4397C210.35 61.4397 222.474 55.5109 225.141 56.5331C227.808 57.5553 230.371 63.6885 220.173 69.5602C209.975 75.4318 213.017 86.3717 213.017 86.3717H220.291C220.291 86.3717 224.656 88.1498 226.353 90.4367C228.051 92.7236 229.263 100.521 230.233 103.164C231.203 105.808 230.708 108.456 228.051 109.316C228.051 109.316 226.353 116.714 226.838 119.995C227.323 123.275 227.081 125.386 223.929 125.786C223.135 125.868 222.334 125.778 221.579 125.52C220.825 125.262 220.135 124.843 219.559 124.292C218.982 123.741 218.532 123.072 218.24 122.33C217.948 121.587 217.82 120.791 217.867 119.995L215.442 128.781L217.139 132.156C219.537 133.085 221.753 134.427 223.686 136.122C227.081 139.031 230.475 139.825 229.505 143.068C228.535 146.31 226.596 149.805 216.412 145.754C206.228 141.703 197.742 125.786 197.742 125.786" stroke="#263238" stroke-width="0.475435" stroke-linecap="round" stroke-linejoin="round"/>
<path d="M228.049 109.316C224.412 110.3 220.171 109.573 218.592 103.135C217.014 96.6979 220.171 89.8231 222.229 89.1907" stroke="#263238" stroke-width="0.475435" stroke-linecap="round" stroke-linejoin="round"/>
<path d="M217.863 119.995C217.863 119.995 217.621 111.717 220.654 109.673" stroke="#263238" stroke-width="0.475435" stroke-linecap="round" stroke-linejoin="round"/>
<path opacity="0.4" d="M129.421 161.105C129.421 161.105 120.536 159.998 118.553 156.023C116.913 152.733 108.022 165.056 97.501 170.438C106.296 161.472 115.681 151.421 118.553 146.448C121.12 142.026 124.368 134.352 127.196 127.14C127.054 133.121 123.868 142.278 124.776 147.047C123.803 147.304 122.971 147.934 122.459 148.801C121.948 149.668 121.798 150.701 122.043 151.677C122.723 155.467 129.421 161.105 129.421 161.105Z" fill="#FAE659"/>
<path d="M191.401 139.849C191.401 139.849 178.212 165.708 154.436 171.575C154.436 171.575 153.533 176.691 149.51 178.887C147.361 180.057 138.694 193.05 131.073 204.913" stroke="#263238" stroke-width="0.475435" stroke-linecap="round" stroke-linejoin="round"/>
<path d="M88.9258 179.049C99.081 169.012 114.689 153.1 118.555 146.448C124.402 136.383 133.768 109.44 133.768 109.44L169.901 69.2558" stroke="#263238" stroke-width="0.475435" stroke-linecap="round" stroke-linejoin="round"/>
<path d="M149.286 99.9451C149.286 99.9451 154.839 104.918 156.417 109.454" stroke="#263238" stroke-width="0.475435" stroke-linecap="round" stroke-linejoin="round"/>
<path d="M214.834 27.5121H155.087C153.32 27.5121 151.887 28.9446 151.887 30.7118V157.906C151.887 159.673 153.32 161.106 155.087 161.106H214.834C216.601 161.106 218.034 159.673 218.034 157.906V30.7118C218.034 28.9446 216.601 27.5121 214.834 27.5121Z" fill="#263238"/>
<path d="M198.065 31.149L196.8 33.4644C196.667 33.7157 196.468 33.9261 196.224 34.0734C195.98 34.2207 195.702 34.2994 195.417 34.3012H174.498C174.214 34.2997 173.935 34.2222 173.691 34.0767C173.447 33.9312 173.246 33.7231 173.11 33.4739L171.85 31.1585C171.714 30.9083 171.514 30.6994 171.27 30.5538C171.025 30.4081 170.746 30.3313 170.462 30.3313H155.842C155.634 30.3319 155.428 30.3736 155.236 30.4541C155.043 30.5345 154.869 30.6521 154.722 30.8C154.576 30.948 154.46 31.1234 154.381 31.3163C154.302 31.5092 154.262 31.7157 154.264 31.924V156.965C154.264 157.384 154.43 157.786 154.726 158.082C155.022 158.379 155.423 158.546 155.842 158.548H214.063C214.272 158.549 214.479 158.509 214.672 158.43C214.865 158.351 215.041 158.235 215.189 158.087C215.337 157.94 215.454 157.765 215.535 157.573C215.615 157.38 215.656 157.173 215.656 156.965V31.924C215.656 31.5041 215.489 31.1014 215.192 30.8045C214.895 30.5076 214.493 30.3408 214.073 30.3408H199.458C199.175 30.338 198.896 30.4117 198.651 30.5539C198.406 30.6961 198.203 30.9017 198.065 31.149Z" fill="#FAE659" stroke="#263238" stroke-width="0.475435" stroke-linecap="round" stroke-linejoin="round"/>
<path d="M168.191 53.7544V50.2967H170.44V50.8218H168.817V51.7605H170.323V52.2856H168.817V53.2294H170.453V53.7544H168.191ZM171.377 52.2349V53.7544H170.766V51.1612H171.35V51.6018H171.381C171.44 51.4566 171.536 51.3412 171.666 51.2557C171.798 51.1702 171.96 51.1274 172.154 51.1274C172.333 51.1274 172.489 51.1657 172.622 51.2422C172.756 51.3187 172.859 51.4296 172.932 51.5748C173.007 51.72 173.043 51.8961 173.042 52.1032V53.7544H172.431V52.1978C172.431 52.0245 172.386 51.8888 172.296 51.7909C172.207 51.693 172.084 51.644 171.926 51.644C171.819 51.644 171.724 51.6677 171.641 51.7149C171.559 51.7611 171.494 51.8281 171.447 51.9158C171.401 52.0036 171.377 52.11 171.377 52.2349ZM174.673 51.1612V51.6339H173.182V51.1612H174.673ZM173.55 50.5399H174.162V52.9744C174.162 53.0566 174.174 53.1196 174.199 53.1635C174.225 53.2063 174.258 53.2356 174.3 53.2513C174.342 53.2671 174.388 53.275 174.438 53.275C174.477 53.275 174.512 53.2721 174.543 53.2665C174.576 53.2609 174.601 53.2558 174.617 53.2513L174.72 53.7291C174.688 53.7404 174.641 53.7528 174.58 53.7663C174.521 53.7798 174.447 53.7876 174.361 53.7899C174.208 53.7944 174.07 53.7713 173.947 53.7207C173.824 53.6689 173.727 53.589 173.655 53.4809C173.584 53.3729 173.549 53.2378 173.55 53.0757V50.5399ZM176.019 53.8051C175.759 53.8051 175.535 53.7511 175.346 53.643C175.158 53.5338 175.013 53.3796 174.912 53.1804C174.81 52.9801 174.76 52.7443 174.76 52.473C174.76 52.2062 174.81 51.9721 174.912 51.7706C175.014 51.568 175.157 51.4105 175.341 51.2979C175.524 51.1842 175.74 51.1274 175.987 51.1274C176.147 51.1274 176.298 51.1533 176.44 51.2051C176.583 51.2557 176.709 51.3345 176.818 51.4414C176.928 51.5484 177.015 51.6845 177.078 51.85C177.141 52.0143 177.172 52.2102 177.172 52.4375V52.6249H175.047V52.213H176.587C176.585 52.0959 176.56 51.9918 176.511 51.9006C176.461 51.8084 176.392 51.7358 176.303 51.6829C176.215 51.63 176.113 51.6035 175.996 51.6035C175.871 51.6035 175.761 51.6339 175.666 51.6947C175.572 51.7543 175.498 51.8331 175.445 51.931C175.393 52.0278 175.367 52.1342 175.366 52.2501V52.6097C175.366 52.7606 175.393 52.89 175.449 52.9981C175.504 53.105 175.581 53.1872 175.68 53.2446C175.779 53.3008 175.895 53.329 176.028 53.329C176.117 53.329 176.197 53.3166 176.269 53.2918C176.341 53.2659 176.404 53.2282 176.457 53.1787C176.509 53.1292 176.549 53.0679 176.576 52.9947L177.147 53.0588C177.111 53.2097 177.042 53.3414 176.941 53.4539C176.841 53.5653 176.713 53.652 176.556 53.7139C176.4 53.7747 176.221 53.8051 176.019 53.8051ZM177.404 53.7544V51.1612H177.997V51.5934H178.024C178.071 51.4437 178.152 51.3283 178.267 51.2473C178.383 51.1651 178.515 51.124 178.664 51.124C178.697 51.124 178.735 51.1257 178.777 51.1291C178.82 51.1313 178.855 51.1353 178.883 51.1409V51.7031C178.857 51.6941 178.816 51.6862 178.76 51.6795C178.705 51.6716 178.651 51.6677 178.6 51.6677C178.488 51.6677 178.388 51.6919 178.299 51.7403C178.211 51.7875 178.142 51.8534 178.091 51.9378C178.041 52.0222 178.015 52.1196 178.015 52.2299V53.7544H177.404ZM179.898 53.7544V51.1612H180.509V53.7544H179.898ZM180.205 50.7931C180.108 50.7931 180.025 50.761 179.955 50.6969C179.886 50.6316 179.851 50.5534 179.851 50.4622C179.851 50.3699 179.886 50.2917 179.955 50.2275C180.025 50.1622 180.108 50.1296 180.205 50.1296C180.303 50.1296 180.386 50.1622 180.455 50.2275C180.525 50.2917 180.56 50.3699 180.56 50.4622C180.56 50.5534 180.525 50.6316 180.455 50.6969C180.386 50.761 180.303 50.7931 180.205 50.7931ZM181.464 52.2349V53.7544H180.852V51.1612H181.437V51.6018H181.467C181.527 51.4566 181.622 51.3412 181.752 51.2557C181.884 51.1702 182.047 51.1274 182.24 51.1274C182.419 51.1274 182.575 51.1657 182.708 51.2422C182.842 51.3187 182.945 51.4296 183.018 51.5748C183.093 51.72 183.129 51.8961 183.128 52.1032V53.7544H182.517V52.1978C182.517 52.0245 182.472 51.8888 182.382 51.7909C182.293 51.693 182.17 51.644 182.012 51.644C181.905 51.644 181.81 51.6677 181.727 51.7149C181.645 51.7611 181.58 51.8281 181.533 51.9158C181.487 52.0036 181.464 52.11 181.464 52.2349ZM184.778 51.1612V51.6339H183.245V51.1612H184.778ZM183.628 53.7544V50.9164C183.628 50.7419 183.664 50.5967 183.736 50.4808C183.809 50.3648 183.907 50.2782 184.03 50.2208C184.153 50.1634 184.289 50.1347 184.438 50.1347C184.544 50.1347 184.638 50.1431 184.72 50.16C184.803 50.1769 184.863 50.1921 184.903 50.2056L184.781 50.6783C184.755 50.6704 184.723 50.6625 184.683 50.6547C184.644 50.6457 184.6 50.6412 184.552 50.6412C184.438 50.6412 184.357 50.6687 184.31 50.7239C184.264 50.7779 184.241 50.8556 184.241 50.9569V53.7544H183.628ZM186.005 53.8051C185.752 53.8051 185.532 53.7494 185.346 53.6379C185.161 53.5265 185.017 53.3706 184.914 53.1703C184.813 52.9699 184.762 52.7358 184.762 52.4679C184.762 52.2 184.813 51.9654 184.914 51.7639C185.017 51.5624 185.161 51.406 185.346 51.2945C185.532 51.1831 185.752 51.1274 186.005 51.1274C186.258 51.1274 186.478 51.1831 186.663 51.2945C186.849 51.406 186.993 51.5624 187.094 51.7639C187.196 51.9654 187.247 52.2 187.247 52.4679C187.247 52.7358 187.196 52.9699 187.094 53.1703C186.993 53.3706 186.849 53.5265 186.663 53.6379C186.478 53.7494 186.258 53.8051 186.005 53.8051ZM186.008 53.3155C186.146 53.3155 186.26 53.2778 186.353 53.2024C186.445 53.1258 186.514 53.0234 186.559 52.8951C186.605 52.7668 186.628 52.6238 186.628 52.4662C186.628 52.3075 186.605 52.164 186.559 52.0357C186.514 51.9063 186.445 51.8033 186.353 51.7268C186.26 51.6502 186.146 51.6119 186.008 51.6119C185.868 51.6119 185.75 51.6502 185.657 51.7268C185.565 51.8033 185.496 51.9063 185.449 52.0357C185.404 52.164 185.382 52.3075 185.382 52.4662C185.382 52.6238 185.404 52.7668 185.449 52.8951C185.496 53.0234 185.565 53.1258 185.657 53.2024C185.75 53.2778 185.868 53.3155 186.008 53.3155ZM187.481 53.7544V51.1612H188.074V51.5934H188.101C188.148 51.4437 188.229 51.3283 188.344 51.2473C188.46 51.1651 188.592 51.124 188.74 51.124C188.774 51.124 188.812 51.1257 188.854 51.1291C188.896 51.1313 188.932 51.1353 188.96 51.1409V51.7031C188.934 51.6941 188.893 51.6862 188.837 51.6795C188.782 51.6716 188.728 51.6677 188.676 51.6677C188.565 51.6677 188.465 51.6919 188.376 51.7403C188.288 51.7875 188.219 51.8534 188.168 51.9378C188.117 52.0222 188.092 52.1196 188.092 52.2299V53.7544H187.481ZM189.081 53.7544V51.1612H189.665V51.6018H189.695C189.749 51.4532 189.839 51.3373 189.964 51.254C190.089 51.1696 190.238 51.1274 190.411 51.1274C190.587 51.1274 190.735 51.1702 190.855 51.2557C190.977 51.3401 191.062 51.4555 191.112 51.6018H191.139C191.196 51.4577 191.293 51.3429 191.429 51.2574C191.567 51.1707 191.729 51.1274 191.917 51.1274C192.156 51.1274 192.35 51.2028 192.501 51.3536C192.652 51.5045 192.728 51.7245 192.728 52.0138V53.7544H192.115V52.1083C192.115 51.9474 192.072 51.8297 191.986 51.7555C191.901 51.68 191.796 51.6423 191.672 51.6423C191.525 51.6423 191.41 51.6885 191.326 51.7808C191.244 51.8719 191.203 51.9907 191.203 52.137V53.7544H190.604V52.083C190.604 51.949 190.563 51.8421 190.482 51.7622C190.402 51.6823 190.297 51.6423 190.168 51.6423C190.08 51.6423 190 51.6648 189.928 51.7099C189.856 51.7538 189.799 51.8162 189.756 51.8973C189.713 51.9772 189.692 52.0706 189.692 52.1775V53.7544H189.081ZM193.809 53.8068C193.644 53.8068 193.496 53.7775 193.365 53.719C193.234 53.6593 193.13 53.5715 193.054 53.4556C192.978 53.3397 192.941 53.1967 192.941 53.0268C192.941 52.8804 192.968 52.7594 193.022 52.6638C193.076 52.5681 193.15 52.4916 193.243 52.4342C193.336 52.3768 193.442 52.3334 193.559 52.3042C193.677 52.2738 193.799 52.2518 193.925 52.2383C194.077 52.2226 194.2 52.2085 194.295 52.1961C194.389 52.1826 194.458 52.1623 194.501 52.1353C194.545 52.1072 194.567 52.0639 194.567 52.0053V51.9952C194.567 51.868 194.529 51.7695 194.454 51.6997C194.378 51.63 194.269 51.5951 194.128 51.5951C193.978 51.5951 193.859 51.6277 193.771 51.693C193.685 51.7583 193.626 51.8354 193.596 51.9243L193.025 51.8432C193.07 51.6857 193.144 51.554 193.248 51.4482C193.352 51.3412 193.478 51.2613 193.628 51.2084C193.778 51.1544 193.943 51.1274 194.124 51.1274C194.249 51.1274 194.374 51.142 194.497 51.1713C194.621 51.2006 194.734 51.249 194.837 51.3165C194.939 51.3829 195.021 51.4735 195.083 51.5883C195.146 51.7031 195.178 51.8466 195.178 52.0188V53.7544H194.59V53.3982H194.57C194.533 53.4702 194.481 53.5378 194.413 53.6008C194.347 53.6627 194.263 53.7128 194.161 53.7511C194.061 53.7882 193.944 53.8068 193.809 53.8068ZM193.967 53.3577C194.09 53.3577 194.196 53.3335 194.286 53.2851C194.376 53.2356 194.446 53.1703 194.494 53.0892C194.544 53.0082 194.568 52.9198 194.568 52.8242V52.5186C194.549 52.5343 194.517 52.549 194.47 52.5625C194.425 52.576 194.375 52.5878 194.318 52.5979C194.262 52.6081 194.206 52.6171 194.151 52.6249C194.096 52.6328 194.048 52.6396 194.008 52.6452C193.917 52.6576 193.835 52.6778 193.763 52.706C193.691 52.7341 193.634 52.7735 193.592 52.8242C193.551 52.8737 193.53 52.9378 193.53 53.0166C193.53 53.1292 193.571 53.2142 193.653 53.2716C193.735 53.329 193.84 53.3577 193.967 53.3577ZM196.802 51.1612V51.6339H195.311V51.1612H196.802ZM195.679 50.5399H196.29V52.9744C196.29 53.0566 196.303 53.1196 196.328 53.1635C196.354 53.2063 196.387 53.2356 196.429 53.2513C196.471 53.2671 196.517 53.275 196.567 53.275C196.606 53.275 196.641 53.2721 196.672 53.2665C196.705 53.2609 196.729 53.2558 196.746 53.2513L196.849 53.7291C196.817 53.7404 196.77 53.7528 196.709 53.7663C196.65 53.7798 196.576 53.7876 196.49 53.7899C196.337 53.7944 196.199 53.7713 196.076 53.7207C195.953 53.6689 195.856 53.589 195.784 53.4809C195.713 53.3729 195.678 53.2378 195.679 53.0757V50.5399ZM197.028 53.7544V51.1612H197.639V53.7544H197.028ZM197.335 50.7931C197.238 50.7931 197.155 50.761 197.085 50.6969C197.016 50.6316 196.981 50.5534 196.981 50.4622C196.981 50.3699 197.016 50.2917 197.085 50.2275C197.155 50.1622 197.238 50.1296 197.335 50.1296C197.433 50.1296 197.516 50.1622 197.585 50.2275C197.655 50.2917 197.69 50.3699 197.69 50.4622C197.69 50.5534 197.655 50.6316 197.585 50.6969C197.516 50.761 197.433 50.7931 197.335 50.7931ZM199.114 53.8051C198.86 53.8051 198.641 53.7494 198.455 53.6379C198.269 53.5265 198.125 53.3706 198.023 53.1703C197.922 52.9699 197.871 52.7358 197.871 52.4679C197.871 52.2 197.922 51.9654 198.023 51.7639C198.125 51.5624 198.269 51.406 198.455 51.2945C198.641 51.1831 198.86 51.1274 199.114 51.1274C199.367 51.1274 199.586 51.1831 199.772 51.2945C199.958 51.406 200.101 51.5624 200.202 51.7639C200.305 51.9654 200.356 52.2 200.356 52.4679C200.356 52.7358 200.305 52.9699 200.202 53.1703C200.101 53.3706 199.958 53.5265 199.772 53.6379C199.586 53.7494 199.367 53.8051 199.114 53.8051ZM199.117 53.3155C199.254 53.3155 199.369 53.2778 199.461 53.2024C199.554 53.1258 199.622 53.0234 199.667 52.8951C199.713 52.7668 199.737 52.6238 199.737 52.4662C199.737 52.3075 199.713 52.164 199.667 52.0357C199.622 51.9063 199.554 51.8033 199.461 51.7268C199.369 51.6502 199.254 51.6119 199.117 51.6119C198.976 51.6119 198.859 51.6502 198.766 51.7268C198.673 51.8033 198.604 51.9063 198.558 52.0357C198.513 52.164 198.491 52.3075 198.491 52.4662C198.491 52.6238 198.513 52.7668 198.558 52.8951C198.604 53.0234 198.673 53.1258 198.766 53.2024C198.859 53.2778 198.976 53.3155 199.117 53.3155ZM201.201 52.2349V53.7544H200.59V51.1612H201.174V51.6018H201.204C201.264 51.4566 201.359 51.3412 201.489 51.2557C201.621 51.1702 201.784 51.1274 201.977 51.1274C202.156 51.1274 202.312 51.1657 202.445 51.2422C202.579 51.3187 202.683 51.4296 202.756 51.5748C202.83 51.72 202.867 51.8961 202.865 52.1032V53.7544H202.254V52.1978C202.254 52.0245 202.209 51.8888 202.119 51.7909C202.03 51.693 201.907 51.644 201.749 51.644C201.643 51.644 201.547 51.6677 201.464 51.7149C201.382 51.7611 201.317 51.8281 201.27 51.9158C201.224 52.0036 201.201 52.11 201.201 52.2349Z" fill="#121212"/>
<path d="M163.259 60.9238V63.6899H162.935L161.427 61.5181H161.4V63.6899H161.065V60.9238H161.39L162.902 63.1011H162.929V60.9238H163.259ZM164.268 63.7386C164.137 63.7386 164.017 63.7138 163.91 63.6643C163.803 63.6139 163.718 63.5414 163.655 63.4468C163.592 63.3514 163.561 63.2361 163.561 63.1011C163.561 62.9822 163.584 62.8858 163.631 62.812C163.678 62.7373 163.74 62.6787 163.818 62.6364C163.897 62.5941 163.983 62.5626 164.078 62.5419C164.173 62.5203 164.269 62.5032 164.366 62.4905C164.492 62.4743 164.594 62.4622 164.672 62.4541C164.751 62.4451 164.809 62.4302 164.845 62.4095C164.882 62.3888 164.9 62.3528 164.9 62.3015V62.2907C164.9 62.1574 164.864 62.0538 164.791 61.98C164.719 61.9062 164.61 61.8692 164.463 61.8692C164.311 61.8692 164.191 61.9026 164.105 61.9692C164.018 62.0358 163.958 62.107 163.922 62.1826L163.62 62.0745C163.674 61.9485 163.746 61.8503 163.836 61.7801C163.927 61.709 164.026 61.6594 164.133 61.6315C164.241 61.6027 164.347 61.5883 164.452 61.5883C164.519 61.5883 164.595 61.5964 164.682 61.6126C164.769 61.6279 164.853 61.6599 164.934 61.7085C165.016 61.7571 165.084 61.8305 165.138 61.9287C165.192 62.0268 165.219 62.1583 165.219 62.3231V63.6899H164.9V63.409H164.884C164.863 63.454 164.827 63.5022 164.776 63.5535C164.726 63.6048 164.659 63.6485 164.575 63.6845C164.491 63.7206 164.389 63.7386 164.268 63.7386ZM164.317 63.4522C164.443 63.4522 164.549 63.4275 164.636 63.3779C164.723 63.3284 164.789 63.2645 164.833 63.1861C164.878 63.1078 164.9 63.0254 164.9 62.939V62.6472C164.887 62.6634 164.857 62.6783 164.811 62.6918C164.766 62.7044 164.714 62.7157 164.655 62.7256C164.596 62.7346 164.539 62.7427 164.483 62.7499C164.428 62.7562 164.384 62.7616 164.349 62.7661C164.266 62.7769 164.189 62.7944 164.117 62.8188C164.046 62.8422 163.988 62.8777 163.944 62.9255C163.901 62.9723 163.879 63.0362 163.879 63.1173C163.879 63.228 163.92 63.3118 164.002 63.3685C164.085 63.4243 164.19 63.4522 164.317 63.4522ZM165.573 63.6899V61.6153H165.881V61.9395H165.908C165.951 61.8287 166.021 61.7427 166.117 61.6815C166.213 61.6194 166.329 61.5883 166.464 61.5883C166.601 61.5883 166.715 61.6194 166.806 61.6815C166.898 61.7427 166.969 61.8287 167.021 61.9395H167.042C167.095 61.8323 167.175 61.7472 167.281 61.6842C167.388 61.6203 167.515 61.5883 167.664 61.5883C167.849 61.5883 168.001 61.6464 168.119 61.7625C168.237 61.8778 168.296 62.0574 168.296 62.3015V63.6899H167.977V62.3015C167.977 62.1484 167.935 62.039 167.851 61.9732C167.768 61.9075 167.669 61.8746 167.555 61.8746C167.41 61.8746 167.297 61.9188 167.216 62.007C167.136 62.0944 167.096 62.2051 167.096 62.3393V63.6899H166.772V62.269C166.772 62.1511 166.734 62.0561 166.657 61.984C166.581 61.9111 166.482 61.8746 166.362 61.8746C166.279 61.8746 166.201 61.8967 166.129 61.9408C166.058 61.9849 166 62.0462 165.956 62.1245C165.913 62.202 165.891 62.2916 165.891 62.3933V63.6899H165.573ZM169.52 63.7332C169.32 63.7332 169.148 63.689 169.003 63.6008C168.859 63.5117 168.748 63.3874 168.669 63.228C168.592 63.0677 168.553 62.8813 168.553 62.6688C168.553 62.4563 168.592 62.269 168.669 62.107C168.748 61.944 168.856 61.817 168.996 61.7261C169.137 61.6342 169.3 61.5883 169.488 61.5883C169.596 61.5883 169.702 61.6063 169.808 61.6423C169.913 61.6783 170.009 61.7369 170.095 61.8179C170.182 61.8981 170.251 62.0043 170.302 62.1367C170.353 62.269 170.379 62.432 170.379 62.6256V62.7607H168.78V62.4851H170.055C170.055 62.3681 170.032 62.2636 169.985 62.1718C169.939 62.0799 169.873 62.0075 169.788 61.9543C169.703 61.9012 169.603 61.8746 169.488 61.8746C169.361 61.8746 169.251 61.9062 169.158 61.9692C169.066 62.0313 168.996 62.1124 168.946 62.2123C168.897 62.3123 168.872 62.4194 168.872 62.5338V62.7175C168.872 62.8741 168.899 63.007 168.953 63.1159C169.008 63.224 169.084 63.3064 169.181 63.3631C169.278 63.4189 169.391 63.4468 169.52 63.4468C169.604 63.4468 169.679 63.4351 169.747 63.4117C169.815 63.3874 169.874 63.3514 169.924 63.3037C169.973 63.255 170.012 63.1947 170.039 63.1227L170.347 63.2091C170.314 63.3136 170.26 63.4054 170.183 63.4846C170.107 63.563 170.012 63.6242 169.9 63.6683C169.787 63.7116 169.661 63.7332 169.52 63.7332Z" fill="#121212"/>
<path d="M161.633 77.7171C161.501 77.7171 161.382 77.6923 161.275 77.6428C161.168 77.5923 161.083 77.5199 161.02 77.4253C160.956 77.3299 160.925 77.2146 160.925 77.0795C160.925 76.9607 160.948 76.8643 160.995 76.7905C161.042 76.7158 161.105 76.6572 161.183 76.6149C161.261 76.5726 161.348 76.5411 161.442 76.5204C161.538 76.4987 161.634 76.4816 161.73 76.469C161.856 76.4528 161.958 76.4407 162.037 76.4326C162.116 76.4236 162.173 76.4087 162.209 76.388C162.246 76.3673 162.265 76.3313 162.265 76.2799V76.2691C162.265 76.1359 162.228 76.0323 162.155 75.9585C162.083 75.8846 161.974 75.8477 161.827 75.8477C161.675 75.8477 161.556 75.881 161.469 75.9477C161.383 76.0143 161.322 76.0854 161.287 76.1611L160.984 76.053C161.038 75.927 161.11 75.8288 161.201 75.7586C161.291 75.6874 161.39 75.6379 161.498 75.61C161.606 75.5812 161.712 75.5668 161.816 75.5668C161.883 75.5668 161.96 75.5749 162.046 75.5911C162.133 75.6064 162.218 75.6384 162.299 75.687C162.381 75.7356 162.449 75.809 162.503 75.9072C162.557 76.0053 162.584 76.1368 162.584 76.3016V77.6684H162.265V77.3875H162.249C162.227 77.4325 162.191 77.4807 162.141 77.532C162.09 77.5833 162.023 77.627 161.939 77.663C161.856 77.699 161.753 77.7171 161.633 77.7171ZM161.681 77.4307C161.807 77.4307 161.914 77.4059 162 77.3564C162.087 77.3069 162.153 77.243 162.197 77.1646C162.242 77.0863 162.265 77.0039 162.265 76.9175V76.6257C162.251 76.6419 162.222 76.6568 162.176 76.6703C162.131 76.6829 162.078 76.6941 162.019 76.7041C161.96 76.7131 161.903 76.7212 161.847 76.7284C161.793 76.7347 161.748 76.7401 161.714 76.7446C161.631 76.7554 161.553 76.7729 161.481 76.7972C161.41 76.8207 161.353 76.8562 161.309 76.9039C161.265 76.9508 161.244 77.0147 161.244 77.0957C161.244 77.2065 161.285 77.2902 161.367 77.347C161.449 77.4028 161.554 77.4307 161.681 77.4307ZM163.775 78.4896C163.621 78.4896 163.488 78.4698 163.377 78.4302C163.267 78.3915 163.174 78.3402 163.101 78.2762C163.028 78.2132 162.97 78.1457 162.926 78.0736L163.18 77.8953C163.209 77.9332 163.246 77.9764 163.29 78.025C163.334 78.0745 163.394 78.1173 163.471 78.1533C163.548 78.1902 163.649 78.2087 163.775 78.2087C163.942 78.2087 164.08 78.1682 164.189 78.0871C164.298 78.0061 164.353 77.8791 164.353 77.7062V77.2848H164.326C164.302 77.3227 164.269 77.3695 164.226 77.4253C164.183 77.4802 164.122 77.5293 164.042 77.5725C163.963 77.6149 163.856 77.636 163.721 77.636C163.553 77.636 163.403 77.5964 163.269 77.5172C163.137 77.4379 163.032 77.3227 162.955 77.1714C162.878 77.0201 162.84 76.8364 162.84 76.6203C162.84 76.4078 162.877 76.2228 162.952 76.0652C163.027 75.9067 163.131 75.7842 163.264 75.6978C163.397 75.6105 163.551 75.5668 163.726 75.5668C163.861 75.5668 163.968 75.5893 164.047 75.6343C164.128 75.6784 164.189 75.7289 164.231 75.7856C164.274 75.8414 164.308 75.8873 164.331 75.9234H164.363V75.5938H164.671V77.7279C164.671 77.9061 164.631 78.0511 164.55 78.1628C164.47 78.2753 164.362 78.3577 164.226 78.4099C164.091 78.4631 163.94 78.4896 163.775 78.4896ZM163.764 77.3497C163.892 77.3497 164 77.3204 164.088 77.2619C164.176 77.2033 164.243 77.1192 164.289 77.0093C164.335 76.8994 164.358 76.768 164.358 76.6149C164.358 76.4654 164.336 76.3335 164.291 76.2192C164.246 76.1048 164.179 76.0152 164.091 75.9504C164.002 75.8855 163.893 75.8531 163.764 75.8531C163.629 75.8531 163.516 75.8873 163.426 75.9558C163.337 76.0242 163.27 76.1161 163.225 76.2313C163.181 76.3466 163.159 76.4744 163.159 76.6149C163.159 76.759 163.181 76.8864 163.226 76.9971C163.272 77.107 163.34 77.1934 163.429 77.2565C163.519 77.3186 163.631 77.3497 163.764 77.3497ZM165.897 77.7116C165.697 77.7116 165.524 77.6675 165.379 77.5793C165.235 77.4901 165.124 77.3659 165.046 77.2065C164.968 77.0462 164.929 76.8598 164.929 76.6473C164.929 76.4348 164.968 76.2475 165.046 76.0854C165.124 75.9225 165.233 75.7955 165.372 75.7046C165.513 75.6127 165.677 75.5668 165.864 75.5668C165.972 75.5668 166.079 75.5848 166.184 75.6208C166.29 75.6568 166.385 75.7154 166.472 75.7964C166.558 75.8765 166.627 75.9828 166.679 76.1152C166.73 76.2475 166.756 76.4105 166.756 76.6041V76.7392H165.156V76.4636H166.431C166.431 76.3466 166.408 76.2421 166.361 76.1503C166.315 76.0584 166.25 75.9859 166.164 75.9328C166.079 75.8797 165.979 75.8531 165.864 75.8531C165.737 75.8531 165.627 75.8846 165.535 75.9477C165.443 76.0098 165.372 76.0908 165.323 76.1908C165.273 76.2907 165.248 76.3979 165.248 76.5123V76.6959C165.248 76.8526 165.275 76.9854 165.329 77.0944C165.384 77.2024 165.46 77.2848 165.558 77.3416C165.655 77.3974 165.768 77.4253 165.897 77.4253C165.98 77.4253 166.056 77.4136 166.123 77.3902C166.192 77.3659 166.251 77.3299 166.3 77.2821C166.35 77.2335 166.388 77.1732 166.415 77.1011L166.723 77.1876C166.691 77.292 166.636 77.3839 166.56 77.4631C166.483 77.5415 166.389 77.6027 166.276 77.6468C166.164 77.69 166.037 77.7116 165.897 77.7116Z" fill="#121212"/>
<path d="M210.396 64.9624H159.516V72.5647H210.396V64.9624Z" fill="#FAE659" stroke="#263238" stroke-width="0.475435" stroke-linecap="round" stroke-linejoin="round"/>
<path d="M210.396 79.2209H159.516V86.8232H210.396V79.2209Z" fill="#FAE659" stroke="#263238" stroke-width="0.475435" stroke-linecap="round" stroke-linejoin="round"/>
<path d="M210.396 92.1861H159.516V99.7883H210.396V92.1861Z" fill="#FAE659" stroke="#263238" stroke-width="0.475435" stroke-linecap="round" stroke-linejoin="round"/>
<path d="M183.606 102.56H159.516V111.46H183.606V102.56Z" fill="#FAE659" stroke="#263238" stroke-width="0.475435" stroke-linecap="round" stroke-linejoin="round"/>
<path d="M210.402 102.56H186.312V111.46H210.402V102.56Z" fill="#FAE659" stroke="#263238" stroke-width="0.475435" stroke-linecap="round" stroke-linejoin="round"/>
<path d="M203.892 95.1579V97.4115H203.664V95.3671H203.131V95.1579H203.892Z" fill="#263238"/>
<path d="M205.961 97.1927V97.4019H204.382V97.2355L205.333 96.3179C205.585 96.0707 205.638 95.9185 205.638 95.7664C205.638 95.5049 205.452 95.3432 205.11 95.3432C204.995 95.3359 204.88 95.3547 204.774 95.3984C204.668 95.442 204.573 95.5094 204.496 95.5952L204.33 95.4526C204.432 95.344 204.556 95.2589 204.694 95.2031C204.832 95.1473 204.98 95.1221 205.129 95.1293C205.604 95.1293 205.875 95.3622 205.875 95.7378C205.868 95.8749 205.831 96.0088 205.767 96.1303C205.703 96.2518 205.613 96.3579 205.504 96.4415L204.72 97.1927H205.961Z" fill="#263238"/>
<path d="M206.871 95.1577V97.4113H206.619V95.3669H206.091V95.1577H206.871Z" fill="#263238"/>
<path d="M182.583 128.442H162.871C161.649 128.441 160.476 127.955 159.612 127.09C158.747 126.225 158.261 125.053 158.26 123.83C158.26 122.607 158.745 121.433 159.61 120.568C160.475 119.702 161.648 119.215 162.871 119.214H182.583C183.189 119.214 183.789 119.333 184.349 119.565C184.909 119.797 185.417 120.138 185.845 120.566C186.274 120.995 186.613 121.504 186.845 122.064C187.076 122.624 187.195 123.224 187.194 123.83C187.194 125.054 186.709 126.227 185.844 127.091C184.979 127.956 183.806 128.442 182.583 128.442Z" fill="#263238"/>
<path d="M167.051 123.376C167.035 123.239 166.969 123.133 166.854 123.057C166.738 122.981 166.597 122.944 166.43 122.944C166.307 122.944 166.2 122.963 166.108 123.003C166.017 123.043 165.946 123.097 165.895 123.166C165.844 123.236 165.819 123.315 165.819 123.403C165.819 123.477 165.837 123.54 165.872 123.593C165.908 123.646 165.954 123.689 166.009 123.724C166.065 123.759 166.124 123.787 166.185 123.809C166.246 123.831 166.303 123.849 166.354 123.862L166.635 123.938C166.707 123.957 166.787 123.983 166.875 124.016C166.964 124.049 167.049 124.095 167.131 124.152C167.212 124.209 167.28 124.282 167.333 124.371C167.386 124.46 167.413 124.57 167.413 124.699C167.413 124.849 167.374 124.984 167.295 125.105C167.218 125.225 167.104 125.321 166.955 125.392C166.806 125.464 166.626 125.499 166.413 125.499C166.215 125.499 166.044 125.467 165.899 125.403C165.755 125.339 165.641 125.25 165.558 125.136C165.476 125.021 165.43 124.889 165.419 124.737H165.765C165.774 124.842 165.809 124.928 165.87 124.997C165.932 125.064 166.011 125.115 166.105 125.148C166.201 125.18 166.303 125.197 166.413 125.197C166.541 125.197 166.656 125.176 166.758 125.134C166.859 125.092 166.94 125.034 167 124.959C167.059 124.883 167.089 124.795 167.089 124.694C167.089 124.602 167.063 124.528 167.012 124.47C166.96 124.412 166.893 124.365 166.809 124.329C166.725 124.293 166.635 124.262 166.538 124.235L166.197 124.138C165.981 124.075 165.81 123.987 165.684 123.872C165.558 123.756 165.495 123.605 165.495 123.419C165.495 123.264 165.537 123.129 165.62 123.014C165.705 122.898 165.819 122.808 165.961 122.744C166.104 122.679 166.264 122.646 166.44 122.646C166.619 122.646 166.777 122.678 166.916 122.742C167.054 122.805 167.164 122.892 167.245 123.002C167.327 123.112 167.37 123.236 167.375 123.376H167.051ZM168.562 125.494C168.362 125.494 168.19 125.45 168.045 125.361C167.901 125.272 167.789 125.148 167.711 124.989C167.634 124.828 167.595 124.642 167.595 124.429C167.595 124.217 167.634 124.03 167.711 123.867C167.789 123.705 167.898 123.578 168.038 123.487C168.178 123.395 168.342 123.349 168.53 123.349C168.638 123.349 168.744 123.367 168.85 123.403C168.955 123.439 169.051 123.497 169.137 123.578C169.224 123.659 169.293 123.765 169.344 123.897C169.395 124.03 169.421 124.193 169.421 124.386V124.521H167.822V124.246H169.097C169.097 124.129 169.073 124.024 169.027 123.932C168.981 123.84 168.915 123.768 168.829 123.715C168.745 123.662 168.645 123.635 168.53 123.635C168.403 123.635 168.293 123.667 168.2 123.73C168.108 123.792 168.037 123.873 167.988 123.973C167.938 124.073 167.914 124.18 167.914 124.294V124.478C167.914 124.635 167.941 124.767 167.995 124.876C168.05 124.984 168.126 125.067 168.223 125.124C168.32 125.179 168.433 125.207 168.562 125.207C168.646 125.207 168.721 125.196 168.789 125.172C168.857 125.148 168.916 125.112 168.966 125.064C169.015 125.016 169.054 124.955 169.081 124.883L169.389 124.97C169.356 125.074 169.302 125.166 169.225 125.245C169.149 125.324 169.054 125.385 168.941 125.429C168.829 125.472 168.702 125.494 168.562 125.494ZM170.288 125.499C170.157 125.499 170.037 125.474 169.93 125.425C169.823 125.374 169.738 125.302 169.675 125.207C169.612 125.112 169.58 124.997 169.58 124.862C169.58 124.743 169.604 124.646 169.651 124.573C169.697 124.498 169.76 124.439 169.838 124.397C169.917 124.355 170.003 124.323 170.098 124.302C170.193 124.281 170.289 124.264 170.385 124.251C170.511 124.235 170.614 124.223 170.692 124.215C170.771 124.206 170.829 124.191 170.865 124.17C170.902 124.149 170.92 124.113 170.92 124.062V124.051C170.92 123.918 170.884 123.814 170.811 123.741C170.739 123.667 170.629 123.63 170.483 123.63C170.33 123.63 170.211 123.663 170.125 123.73C170.038 123.796 169.978 123.867 169.942 123.943L169.64 123.835C169.694 123.709 169.766 123.611 169.856 123.541C169.947 123.469 170.046 123.42 170.153 123.392C170.261 123.363 170.367 123.349 170.472 123.349C170.538 123.349 170.615 123.357 170.701 123.373C170.789 123.388 170.873 123.42 170.954 123.469C171.036 123.518 171.104 123.591 171.158 123.689C171.212 123.787 171.239 123.919 171.239 124.084V125.45H170.92V125.17H170.904C170.882 125.215 170.846 125.263 170.796 125.314C170.746 125.365 170.678 125.409 170.595 125.445C170.511 125.481 170.409 125.499 170.288 125.499ZM170.337 125.213C170.463 125.213 170.569 125.188 170.656 125.138C170.743 125.089 170.809 125.025 170.853 124.947C170.898 124.868 170.92 124.786 170.92 124.699V124.408C170.907 124.424 170.877 124.439 170.831 124.452C170.786 124.465 170.734 124.476 170.674 124.486C170.616 124.495 170.559 124.503 170.503 124.51C170.448 124.517 170.403 124.522 170.369 124.527C170.286 124.537 170.209 124.555 170.137 124.579C170.066 124.603 170.008 124.638 169.964 124.686C169.921 124.733 169.899 124.797 169.899 124.878C169.899 124.989 169.94 125.072 170.022 125.129C170.105 125.185 170.21 125.213 170.337 125.213ZM171.593 125.45V123.376H171.901V123.689H171.922C171.96 123.587 172.028 123.503 172.127 123.439C172.227 123.375 172.338 123.343 172.462 123.343C172.486 123.343 172.515 123.344 172.55 123.345C172.585 123.346 172.612 123.347 172.63 123.349V123.673C172.619 123.67 172.594 123.666 172.556 123.661C172.518 123.655 172.478 123.651 172.435 123.651C172.335 123.651 172.245 123.673 172.165 123.715C172.087 123.756 172.025 123.814 171.979 123.888C171.934 123.961 171.911 124.044 171.911 124.138V125.45H171.593ZM173.559 125.494C173.365 125.494 173.197 125.448 173.057 125.356C172.916 125.264 172.808 125.138 172.733 124.976C172.657 124.815 172.619 124.631 172.619 124.424C172.619 124.213 172.658 124.027 172.735 123.866C172.814 123.704 172.923 123.578 173.062 123.487C173.203 123.395 173.367 123.349 173.554 123.349C173.7 123.349 173.831 123.376 173.948 123.43C174.065 123.484 174.161 123.56 174.236 123.657C174.311 123.754 174.357 123.867 174.375 123.997H174.056C174.032 123.903 173.978 123.819 173.894 123.746C173.811 123.672 173.7 123.635 173.559 123.635C173.435 123.635 173.326 123.668 173.232 123.732C173.14 123.796 173.067 123.887 173.015 124.004C172.964 124.12 172.938 124.256 172.938 124.413C172.938 124.573 172.963 124.713 173.014 124.832C173.065 124.951 173.137 125.043 173.23 125.109C173.323 125.174 173.433 125.207 173.559 125.207C173.642 125.207 173.717 125.193 173.785 125.164C173.852 125.135 173.91 125.094 173.956 125.04C174.003 124.986 174.036 124.921 174.056 124.845H174.375C174.357 124.968 174.312 125.078 174.241 125.176C174.171 125.274 174.078 125.351 173.962 125.409C173.846 125.465 173.712 125.494 173.559 125.494ZM174.932 124.202V125.45H174.613V122.684H174.932V123.7H174.959C175.007 123.593 175.08 123.508 175.177 123.445C175.276 123.381 175.406 123.349 175.569 123.349C175.71 123.349 175.834 123.377 175.941 123.434C176.047 123.49 176.129 123.576 176.188 123.692C176.247 123.807 176.277 123.954 176.277 124.132V125.45H175.958V124.154C175.958 123.989 175.915 123.862 175.83 123.772C175.745 123.681 175.628 123.635 175.477 123.635C175.373 123.635 175.279 123.657 175.196 123.701C175.114 123.745 175.05 123.81 175.002 123.895C174.955 123.979 174.932 124.082 174.932 124.202Z" fill="#FAE659"/>
<path d="M191.478 142.197C191.478 141.332 191.953 140.819 192.562 140.819C193.171 140.819 193.646 141.332 193.646 142.197C193.646 143.063 193.171 143.576 192.562 143.576C191.953 143.576 191.478 143.063 191.478 142.197ZM193.38 142.197C193.38 141.475 193.056 141.075 192.586 141.075C192.115 141.075 191.787 141.475 191.787 142.197C191.787 142.92 192.11 143.319 192.586 143.319C193.061 143.319 193.356 142.92 193.356 142.197H193.38Z" fill="#FAE659"/>
<path d="M155.135 132.356C155.849 143.315 150.771 155.519 150.771 155.519L123.343 147.798L118.561 146.448C123.315 139.844 125.578 126.836 124.337 116.31C124.242 115.516 124.185 114.769 124.142 114.056C123.667 105.375 127.275 102.836 130.323 98.999C133.651 94.8437 141.058 79.1542 141.058 75.441C141.058 71.7278 150.353 62.6374 148.284 52.3204C148.284 52.3204 151.094 50.5755 153.918 52.0066C155.202 52.6532 156.481 53.9512 157.513 56.3569C159.932 62.0099 156.533 77.9894 153.643 81.907L148.075 104.956C148.075 104.956 149.953 108.194 151.798 114.07C153.632 120.012 154.752 126.15 155.135 132.356Z" fill="#FAE659"/>
<path opacity="0.4" d="M124.138 114.056C125.693 118.311 127.342 121.188 127.2 127.15C127.057 133.112 123.872 142.288 124.78 147.056C124.261 147.209 123.777 147.461 123.354 147.798L118.571 146.448C123.325 139.844 125.588 126.836 124.347 116.31C124.238 115.516 124.181 114.769 124.138 114.056Z" fill="#FAE659"/>
<path opacity="0.4" d="M153.64 81.907L148.073 104.956C148.073 104.956 149.951 108.194 151.795 114.071C148.025 107.994 144.821 106.178 144.821 106.178C147.331 103.169 149.266 81.1559 149.266 81.1559C149.266 81.1559 157.134 71.9086 156.398 62.2334C156.161 58.7077 155.322 55.2486 153.916 52.0067C155.199 52.6533 156.478 53.9512 157.51 56.357C159.93 62.0099 156.531 77.9894 153.64 81.907Z" fill="#FAE659"/>
<path d="M118.561 146.448C123.315 139.844 125.578 126.836 124.342 116.31C123.106 105.784 127.023 103.15 130.327 98.9943C133.632 94.8389 141.058 79.1542 141.058 75.4363C141.058 71.7183 150.348 62.6422 148.284 52.3204C148.284 52.3204 154.213 48.6452 157.513 56.3569C159.932 62.0146 156.533 77.9894 153.643 81.9117L148.08 104.956C148.08 104.956 154.018 115.202 155.135 132.356C155.849 143.315 150.771 155.524 150.771 155.524" stroke="#263238" stroke-width="0.475435" stroke-linecap="round" stroke-linejoin="round"/>
<path d="M136.886 164.291C136.886 164.291 143.128 168.133 146.77 174.209" stroke="#263238" stroke-width="0.475435" stroke-linecap="round" stroke-linejoin="round"/>
<path d="M154.415 171.561C154.415 171.561 149.038 172.326 144.179 166.512C141.065 162.789 131.609 161.106 129.441 151.369" stroke="#263238" stroke-width="0.475435" stroke-linecap="round" stroke-linejoin="round"/>
<path opacity="0.2" d="M232.566 200.353C218.803 193.769 227.137 188.491 208.201 180.318C189.264 172.146 189.074 165.161 191.356 149.101C193.638 133.041 191.832 115.958 197.337 114.508C202.843 113.058 193.03 90.9073 199.448 83.0769L231.036 144.523L232.566 200.353Z" fill="black" fill-opacity="0.7"/>
<path d="M283.858 199.711C283.211 197.862 282.555 195.841 282.047 194.006C281.39 191.629 280.877 189.727 279.669 187.516C279.479 187.164 279.275 186.793 279.047 186.394C277.758 184.098 275.994 180.955 274.963 177.095C274.268 174.494 274.963 168.09 275.609 161.88C276.085 157.421 276.517 153.213 276.389 150.827L276.351 149.98C276.028 143.738 275.352 130.749 273.974 127.159C272.619 123.698 271.354 123.18 269.048 122.257C268.811 122.153 268.573 122.058 268.297 121.944C267.432 121.582 265.958 120.822 264.261 119.942C260.433 117.959 255.67 115.492 253.25 115.188C250.986 114.933 248.696 115.039 246.465 115.501C243.484 113.215 238.412 110.272 236.9 110.21C235.664 110.148 232.963 110.923 231.67 111.327L231.019 111.536C230.2 110.901 229.332 110.332 228.423 109.834C228.361 109.801 228.299 109.777 228.247 109.753C226.569 109.064 224.035 109.04 222.651 109.078C222.233 109.078 221.905 109.121 221.757 109.135C219.147 105.118 216.58 101.119 215.462 99.365C213.133 95.6756 205.921 80.4948 205.849 80.3474C205.841 80.3278 205.828 80.3107 205.811 80.2974C205.795 80.2841 205.775 80.2752 205.754 80.2713C205.732 80.2683 205.71 80.2683 205.688 80.2713C205.127 80.1097 200.995 79.059 199.336 83.0622C197.52 87.4219 200.111 96.9925 202.64 100.468C203.857 102.142 207.181 108.969 210.551 116.034C209.686 116.837 202.764 123.232 199.402 124.425C196.65 125.4 197.296 139.511 197.815 150.841C198.009 155.025 198.171 158.624 198.124 160.787C198.028 164.971 205.64 170.733 213.019 176.305C219.675 181.354 226.578 186.57 227.386 190.359C227.61 191.424 228.247 192.29 229.008 193.264C230.277 194.881 231.912 196.787 232.607 200.396C232.811 201.48 234.551 202.897 235.935 205.212H285.874C285.455 204.085 284.666 202.031 283.858 199.711ZM214.602 124.544C217.022 129.612 218.52 132.627 218.881 132.964C219.242 133.302 219.218 134.909 219.209 136.473C219.157 137.842 219.204 139.214 219.352 140.576C218.762 141.094 215.039 144.484 214.288 147.232L211.127 143.51L210.328 131.828C210.803 131.324 214.055 127.887 214.602 124.544Z" fill="#FAE659"/>
<path opacity="0.4" d="M269.521 157.112C270.695 168.07 270.709 174.013 272.026 177.185C274.251 182.538 277.527 183.622 277.527 183.622C276.438 181.547 275.572 179.362 274.945 177.104C274.256 174.503 274.945 168.099 275.592 161.89C276.067 157.43 276.505 153.218 276.381 150.831L276.338 149.985C276.015 143.747 275.34 130.758 273.961 127.164C272.611 123.702 271.342 123.184 269.036 122.257C268.798 122.157 268.56 122.062 268.285 121.948C267.419 121.587 265.95 120.826 264.248 119.947C260.421 117.964 255.657 115.496 253.237 115.192C250.973 114.935 248.683 115.041 246.453 115.506C243.472 113.219 238.399 110.276 236.887 110.21C235.651 110.152 232.299 111.127 230.997 111.541C236.702 116.195 244.917 122 244.917 122C251.416 123.294 250.584 126.113 253.213 127.706C255.591 129.132 257.863 124.958 259.869 124.592C262.494 124.116 265.475 126.883 265.342 130.24C264.933 139.487 268.513 147.703 269.521 157.112Z" fill="#FAE659"/>
<path opacity="0.4" d="M236.666 123.151C236.666 123.151 231.517 118.872 229.059 117.446C226.601 116.019 226.207 111.103 228.146 109.91C228.22 109.866 228.303 109.84 228.389 109.834L228.213 109.753C226.535 109.064 224.001 109.035 222.617 109.078C225.47 114.389 227.747 118.463 228.36 119.357C230.429 122.343 236.666 123.151 236.666 123.151Z" fill="#FAE659"/>
<path opacity="0.4" d="M228.853 189.694C229.071 188.557 227.198 185.229 226.376 183.879C224.507 180.798 202.813 161.629 205.956 156.513C209.099 151.397 211.97 155.182 213.958 155.514C215.384 155.752 219.301 153.418 219.282 153.223C218.835 149.281 222.472 146.719 222.472 146.719C222.472 146.719 222.14 131.029 221.303 131.296C220.466 131.562 210.454 107.738 210.454 107.738C210.454 107.738 199.871 93.6645 200.47 87.0987C201.069 80.5329 205.661 80.4188 205.661 80.4188V80.2429C205.1 80.0812 200.969 79.0305 199.31 83.0337C197.493 87.3935 200.084 96.9641 202.614 100.44C203.831 102.113 207.154 108.94 210.525 116.005C209.66 116.809 202.737 123.204 199.376 124.397C196.623 125.372 197.27 139.483 197.788 150.812C197.983 154.996 198.145 158.595 198.097 160.759C198.002 164.942 205.614 170.705 212.992 176.277C219.648 181.326 226.552 186.542 227.36 190.331C227.583 191.396 228.22 192.261 228.981 193.236C228.83 192.062 228.787 190.876 228.853 189.694ZM214.59 124.559C217.01 129.627 218.507 132.641 218.869 132.979C219.23 133.316 219.206 134.923 219.197 136.487C219.145 137.857 219.192 139.228 219.339 140.59C218.75 141.109 215.027 144.498 214.276 147.247L211.114 143.524L210.316 131.842C210.791 131.324 214.043 127.887 214.59 124.544V124.559Z" fill="#FAE659"/>
<path d="M233.711 123.089C231.587 122.421 229.72 121.112 228.368 119.343C226.195 116.433 217.661 103.178 215.298 99.4409C212.935 95.7039 205.661 80.4186 205.661 80.4186C205.661 80.4186 201.192 78.9209 199.452 83.0953C197.712 87.2696 200.094 96.7023 202.742 100.335C205.39 103.967 217.975 131.937 218.973 132.84C219.971 133.744 218.474 141.208 220.475 143.015" stroke="#263238" stroke-width="0.475435" stroke-linecap="round" stroke-linejoin="round"/>
<path d="M219.522 140.643C219.522 140.643 214.911 144.66 214.369 147.594L210.945 143.567L210.137 131.766C210.137 131.766 214.269 127.63 214.497 123.95" stroke="#263238" stroke-width="0.475435" stroke-linecap="round" stroke-linejoin="round"/>
<path d="M210.73 116.02C210.73 116.02 203.07 123.246 199.429 124.535C195.787 125.823 198.444 152.899 198.264 160.739C198.083 168.579 225.815 182.239 227.517 190.264C228.192 193.459 230.988 194.111 232.694 200.248" stroke="#263238" stroke-width="0.475435" stroke-linecap="round" stroke-linejoin="round"/>
<path d="M221.623 109.292C221.623 109.292 225.793 108.916 228.141 109.896C230.49 110.875 240.027 119.067 242.328 120.631C244.629 122.195 248.09 122.79 248.746 124.478" stroke="#263238" stroke-width="0.475435" stroke-linecap="round" stroke-linejoin="round"/>
<path d="M230.947 111.708C230.947 111.708 235.226 110.281 236.862 110.362C238.497 110.443 244.649 114.07 247.407 116.495C249.52 118.37 251.953 119.848 254.59 120.86" stroke="#263238" stroke-width="0.475435" stroke-linecap="round" stroke-linejoin="round"/>
<path d="M246.398 115.672C248.631 115.192 250.928 115.081 253.197 115.344C256.677 115.82 265.416 120.955 268.202 122.115C270.988 123.275 272.319 123.489 273.783 127.235C275.248 130.982 275.918 145.226 276.213 150.855C276.507 156.484 273.574 172.606 274.786 177.142C275.999 181.678 278.186 185.177 279.512 187.602" stroke="#263238" stroke-width="0.475435" stroke-linecap="round" stroke-linejoin="round"/>
<path d="M210.132 131.766C210.132 131.766 209.466 128.985 208.516 128.628" stroke="#263238" stroke-width="0.475435" stroke-linecap="round" stroke-linejoin="round"/>
<path d="M210.949 143.567C211.27 145.188 211.704 146.785 212.247 148.345C212.932 150.033 211.867 152.477 211.867 152.477" stroke="#263238" stroke-width="0.475435" stroke-linecap="round" stroke-linejoin="round"/>
<path d="M214.376 147.594C214.267 150.294 216.953 153.451 217.604 153.004" stroke="#263238" stroke-width="0.475435" stroke-linecap="round" stroke-linejoin="round"/>
<path d="M228.041 131.767C228.041 131.767 230.927 127.098 233.694 126.87C236.461 126.642 239.656 130.569 241.363 130.198C243.069 129.827 245.218 127.317 248.09 126.87C250.961 126.423 252.307 127.792 254.584 127.906C256.862 128.02 257.095 124.977 259.814 124.578C262.533 124.179 263.461 125.529 265.286 125.881C267.112 126.233 267.568 124.792 269.047 123.979" stroke="#263238" stroke-width="0.475435" stroke-linecap="round" stroke-linejoin="round"/>
<rect x="1" y="1" width="380" height="189" rx="94.5" stroke="black" stroke-width="2"/>
</g>
</svg>
